<mxfile host="Electron" modified="2023-10-03T16:01:40.076Z" agent="Mozilla/5.0 (Windows NT 10.0; Win64; x64) AppleWebKit/537.36 (KHTML, like Gecko) draw.io/21.6.8 Chrome/114.0.5735.289 Electron/25.5.0 Safari/537.36" etag="hKTCanY-mEdKqANQpFAE" version="21.6.8" type="device">
  <diagram name="Trang-1" id="pyxZIUCvIKCaS7VZZltd">
    <mxGraphModel dx="1886" dy="1706" grid="0" gridSize="10" guides="1" tooltips="1" connect="1" arrows="1" fold="1" page="1" pageScale="1" pageWidth="850" pageHeight="1100" math="0" shadow="0">
      <root>
        <mxCell id="0" />
        <mxCell id="1" parent="0" />
        <mxCell id="Tqe3TVvIQu0EyD7yZYep-1" value="Account" style="shape=table;startSize=30;container=1;collapsible=1;childLayout=tableLayout;fixedRows=1;rowLines=0;fontStyle=1;align=center;resizeLast=1;html=1;" parent="1" vertex="1">
          <mxGeometry x="293" y="409.85" width="180.14996337890625" height="303.1500244140625" as="geometry" />
        </mxCell>
        <mxCell id="Tqe3TVvIQu0EyD7yZYep-2" value="" style="shape=tableRow;horizontal=0;startSize=0;swimlaneHead=0;swimlaneBody=0;fillColor=none;collapsible=0;dropTarget=0;points=[[0,0.5],[1,0.5]];portConstraint=eastwest;top=0;left=0;right=0;bottom=1;" parent="Tqe3TVvIQu0EyD7yZYep-1" vertex="1">
          <mxGeometry y="30" width="180.14996337890625" height="30" as="geometry" />
        </mxCell>
        <mxCell id="Tqe3TVvIQu0EyD7yZYep-3" value="PK" style="shape=partialRectangle;connectable=0;fillColor=none;top=0;left=0;bottom=0;right=0;fontStyle=1;overflow=hidden;whiteSpace=wrap;html=1;" parent="Tqe3TVvIQu0EyD7yZYep-2" vertex="1">
          <mxGeometry width="30" height="30" as="geometry">
            <mxRectangle width="30" height="30" as="alternateBounds" />
          </mxGeometry>
        </mxCell>
        <mxCell id="Tqe3TVvIQu0EyD7yZYep-4" value="accountID" style="shape=partialRectangle;connectable=0;fillColor=none;top=0;left=0;bottom=0;right=0;align=left;spacingLeft=6;fontStyle=5;overflow=hidden;whiteSpace=wrap;html=1;" parent="Tqe3TVvIQu0EyD7yZYep-2" vertex="1">
          <mxGeometry x="30" width="150.14996337890625" height="30" as="geometry">
            <mxRectangle width="150.14996337890625" height="30" as="alternateBounds" />
          </mxGeometry>
        </mxCell>
        <mxCell id="Tqe3TVvIQu0EyD7yZYep-5" value="" style="shape=tableRow;horizontal=0;startSize=0;swimlaneHead=0;swimlaneBody=0;fillColor=none;collapsible=0;dropTarget=0;points=[[0,0.5],[1,0.5]];portConstraint=eastwest;top=0;left=0;right=0;bottom=0;" parent="Tqe3TVvIQu0EyD7yZYep-1" vertex="1">
          <mxGeometry y="60" width="180.14996337890625" height="30" as="geometry" />
        </mxCell>
        <mxCell id="Tqe3TVvIQu0EyD7yZYep-6" value="" style="shape=partialRectangle;connectable=0;fillColor=none;top=0;left=0;bottom=0;right=0;editable=1;overflow=hidden;whiteSpace=wrap;html=1;" parent="Tqe3TVvIQu0EyD7yZYep-5" vertex="1">
          <mxGeometry width="30" height="30" as="geometry">
            <mxRectangle width="30" height="30" as="alternateBounds" />
          </mxGeometry>
        </mxCell>
        <mxCell id="Tqe3TVvIQu0EyD7yZYep-7" value="name" style="shape=partialRectangle;connectable=0;fillColor=none;top=0;left=0;bottom=0;right=0;align=left;spacingLeft=6;overflow=hidden;whiteSpace=wrap;html=1;" parent="Tqe3TVvIQu0EyD7yZYep-5" vertex="1">
          <mxGeometry x="30" width="150.14996337890625" height="30" as="geometry">
            <mxRectangle width="150.14996337890625" height="30" as="alternateBounds" />
          </mxGeometry>
        </mxCell>
        <mxCell id="Tqe3TVvIQu0EyD7yZYep-8" value="" style="shape=tableRow;horizontal=0;startSize=0;swimlaneHead=0;swimlaneBody=0;fillColor=none;collapsible=0;dropTarget=0;points=[[0,0.5],[1,0.5]];portConstraint=eastwest;top=0;left=0;right=0;bottom=0;" parent="Tqe3TVvIQu0EyD7yZYep-1" vertex="1">
          <mxGeometry y="90" width="180.14996337890625" height="30" as="geometry" />
        </mxCell>
        <mxCell id="Tqe3TVvIQu0EyD7yZYep-9" value="" style="shape=partialRectangle;connectable=0;fillColor=none;top=0;left=0;bottom=0;right=0;editable=1;overflow=hidden;whiteSpace=wrap;html=1;" parent="Tqe3TVvIQu0EyD7yZYep-8" vertex="1">
          <mxGeometry width="30" height="30" as="geometry">
            <mxRectangle width="30" height="30" as="alternateBounds" />
          </mxGeometry>
        </mxCell>
        <mxCell id="Tqe3TVvIQu0EyD7yZYep-10" value="password" style="shape=partialRectangle;connectable=0;fillColor=none;top=0;left=0;bottom=0;right=0;align=left;spacingLeft=6;overflow=hidden;whiteSpace=wrap;html=1;" parent="Tqe3TVvIQu0EyD7yZYep-8" vertex="1">
          <mxGeometry x="30" width="150.14996337890625" height="30" as="geometry">
            <mxRectangle width="150.14996337890625" height="30" as="alternateBounds" />
          </mxGeometry>
        </mxCell>
        <mxCell id="Tqe3TVvIQu0EyD7yZYep-11" value="" style="shape=tableRow;horizontal=0;startSize=0;swimlaneHead=0;swimlaneBody=0;fillColor=none;collapsible=0;dropTarget=0;points=[[0,0.5],[1,0.5]];portConstraint=eastwest;top=0;left=0;right=0;bottom=0;" parent="Tqe3TVvIQu0EyD7yZYep-1" vertex="1">
          <mxGeometry y="120" width="180.14996337890625" height="30" as="geometry" />
        </mxCell>
        <mxCell id="Tqe3TVvIQu0EyD7yZYep-12" value="" style="shape=partialRectangle;connectable=0;fillColor=none;top=0;left=0;bottom=0;right=0;editable=1;overflow=hidden;whiteSpace=wrap;html=1;" parent="Tqe3TVvIQu0EyD7yZYep-11" vertex="1">
          <mxGeometry width="30" height="30" as="geometry">
            <mxRectangle width="30" height="30" as="alternateBounds" />
          </mxGeometry>
        </mxCell>
        <mxCell id="Tqe3TVvIQu0EyD7yZYep-13" value="profilePhoto" style="shape=partialRectangle;connectable=0;fillColor=none;top=0;left=0;bottom=0;right=0;align=left;spacingLeft=6;overflow=hidden;whiteSpace=wrap;html=1;" parent="Tqe3TVvIQu0EyD7yZYep-11" vertex="1">
          <mxGeometry x="30" width="150.14996337890625" height="30" as="geometry">
            <mxRectangle width="150.14996337890625" height="30" as="alternateBounds" />
          </mxGeometry>
        </mxCell>
        <mxCell id="Tqe3TVvIQu0EyD7yZYep-14" value="" style="shape=tableRow;horizontal=0;startSize=0;swimlaneHead=0;swimlaneBody=0;fillColor=none;collapsible=0;dropTarget=0;points=[[0,0.5],[1,0.5]];portConstraint=eastwest;top=0;left=0;right=0;bottom=0;" parent="Tqe3TVvIQu0EyD7yZYep-1" vertex="1">
          <mxGeometry y="150" width="180.14996337890625" height="30" as="geometry" />
        </mxCell>
        <mxCell id="Tqe3TVvIQu0EyD7yZYep-15" value="" style="shape=partialRectangle;connectable=0;fillColor=none;top=0;left=0;bottom=0;right=0;editable=1;overflow=hidden;whiteSpace=wrap;html=1;" parent="Tqe3TVvIQu0EyD7yZYep-14" vertex="1">
          <mxGeometry width="30" height="30" as="geometry">
            <mxRectangle width="30" height="30" as="alternateBounds" />
          </mxGeometry>
        </mxCell>
        <mxCell id="Tqe3TVvIQu0EyD7yZYep-16" value="phone" style="shape=partialRectangle;connectable=0;fillColor=none;top=0;left=0;bottom=0;right=0;align=left;spacingLeft=6;overflow=hidden;whiteSpace=wrap;html=1;" parent="Tqe3TVvIQu0EyD7yZYep-14" vertex="1">
          <mxGeometry x="30" width="150.14996337890625" height="30" as="geometry">
            <mxRectangle width="150.14996337890625" height="30" as="alternateBounds" />
          </mxGeometry>
        </mxCell>
        <mxCell id="Tqe3TVvIQu0EyD7yZYep-17" value="" style="shape=tableRow;horizontal=0;startSize=0;swimlaneHead=0;swimlaneBody=0;fillColor=none;collapsible=0;dropTarget=0;points=[[0,0.5],[1,0.5]];portConstraint=eastwest;top=0;left=0;right=0;bottom=0;" parent="Tqe3TVvIQu0EyD7yZYep-1" vertex="1">
          <mxGeometry y="180" width="180.14996337890625" height="30" as="geometry" />
        </mxCell>
        <mxCell id="Tqe3TVvIQu0EyD7yZYep-18" value="" style="shape=partialRectangle;connectable=0;fillColor=none;top=0;left=0;bottom=0;right=0;editable=1;overflow=hidden;whiteSpace=wrap;html=1;" parent="Tqe3TVvIQu0EyD7yZYep-17" vertex="1">
          <mxGeometry width="30" height="30" as="geometry">
            <mxRectangle width="30" height="30" as="alternateBounds" />
          </mxGeometry>
        </mxCell>
        <mxCell id="Tqe3TVvIQu0EyD7yZYep-19" value="role" style="shape=partialRectangle;connectable=0;fillColor=none;top=0;left=0;bottom=0;right=0;align=left;spacingLeft=6;overflow=hidden;whiteSpace=wrap;html=1;" parent="Tqe3TVvIQu0EyD7yZYep-17" vertex="1">
          <mxGeometry x="30" width="150.14996337890625" height="30" as="geometry">
            <mxRectangle width="150.14996337890625" height="30" as="alternateBounds" />
          </mxGeometry>
        </mxCell>
        <mxCell id="Tqe3TVvIQu0EyD7yZYep-20" value="" style="shape=tableRow;horizontal=0;startSize=0;swimlaneHead=0;swimlaneBody=0;fillColor=none;collapsible=0;dropTarget=0;points=[[0,0.5],[1,0.5]];portConstraint=eastwest;top=0;left=0;right=0;bottom=0;" parent="Tqe3TVvIQu0EyD7yZYep-1" vertex="1">
          <mxGeometry y="210" width="180.14996337890625" height="30" as="geometry" />
        </mxCell>
        <mxCell id="Tqe3TVvIQu0EyD7yZYep-21" value="" style="shape=partialRectangle;connectable=0;fillColor=none;top=0;left=0;bottom=0;right=0;editable=1;overflow=hidden;whiteSpace=wrap;html=1;" parent="Tqe3TVvIQu0EyD7yZYep-20" vertex="1">
          <mxGeometry width="30" height="30" as="geometry">
            <mxRectangle width="30" height="30" as="alternateBounds" />
          </mxGeometry>
        </mxCell>
        <mxCell id="Tqe3TVvIQu0EyD7yZYep-22" value="accountStatus" style="shape=partialRectangle;connectable=0;fillColor=none;top=0;left=0;bottom=0;right=0;align=left;spacingLeft=6;overflow=hidden;whiteSpace=wrap;html=1;" parent="Tqe3TVvIQu0EyD7yZYep-20" vertex="1">
          <mxGeometry x="30" width="150.14996337890625" height="30" as="geometry">
            <mxRectangle width="150.14996337890625" height="30" as="alternateBounds" />
          </mxGeometry>
        </mxCell>
        <mxCell id="DJ9ME87U0K5ULEJKeNk8-1" value="" style="shape=tableRow;horizontal=0;startSize=0;swimlaneHead=0;swimlaneBody=0;fillColor=none;collapsible=0;dropTarget=0;points=[[0,0.5],[1,0.5]];portConstraint=eastwest;top=0;left=0;right=0;bottom=0;" parent="Tqe3TVvIQu0EyD7yZYep-1" vertex="1">
          <mxGeometry y="240" width="180.14996337890625" height="33" as="geometry" />
        </mxCell>
        <mxCell id="DJ9ME87U0K5ULEJKeNk8-2" value="" style="shape=partialRectangle;connectable=0;fillColor=none;top=0;left=0;bottom=0;right=0;editable=1;overflow=hidden;whiteSpace=wrap;html=1;" parent="DJ9ME87U0K5ULEJKeNk8-1" vertex="1">
          <mxGeometry width="30" height="33" as="geometry">
            <mxRectangle width="30" height="33" as="alternateBounds" />
          </mxGeometry>
        </mxCell>
        <mxCell id="DJ9ME87U0K5ULEJKeNk8-3" value="email" style="shape=partialRectangle;connectable=0;fillColor=none;top=0;left=0;bottom=0;right=0;align=left;spacingLeft=6;overflow=hidden;whiteSpace=wrap;html=1;" parent="DJ9ME87U0K5ULEJKeNk8-1" vertex="1">
          <mxGeometry x="30" width="150.14996337890625" height="33" as="geometry">
            <mxRectangle width="150.14996337890625" height="33" as="alternateBounds" />
          </mxGeometry>
        </mxCell>
        <mxCell id="JcD8GRca0Y4Sereimufb-1" value="" style="shape=tableRow;horizontal=0;startSize=0;swimlaneHead=0;swimlaneBody=0;fillColor=none;collapsible=0;dropTarget=0;points=[[0,0.5],[1,0.5]];portConstraint=eastwest;top=0;left=0;right=0;bottom=0;" parent="Tqe3TVvIQu0EyD7yZYep-1" vertex="1">
          <mxGeometry y="273" width="180.14996337890625" height="30" as="geometry" />
        </mxCell>
        <mxCell id="JcD8GRca0Y4Sereimufb-2" value="" style="shape=partialRectangle;connectable=0;fillColor=none;top=0;left=0;bottom=0;right=0;editable=1;overflow=hidden;whiteSpace=wrap;html=1;" parent="JcD8GRca0Y4Sereimufb-1" vertex="1">
          <mxGeometry width="30" height="30" as="geometry">
            <mxRectangle width="30" height="30" as="alternateBounds" />
          </mxGeometry>
        </mxCell>
        <mxCell id="JcD8GRca0Y4Sereimufb-3" value="point" style="shape=partialRectangle;connectable=0;fillColor=none;top=0;left=0;bottom=0;right=0;align=left;spacingLeft=6;overflow=hidden;whiteSpace=wrap;html=1;" parent="JcD8GRca0Y4Sereimufb-1" vertex="1">
          <mxGeometry x="30" width="150.14996337890625" height="30" as="geometry">
            <mxRectangle width="150.14996337890625" height="30" as="alternateBounds" />
          </mxGeometry>
        </mxCell>
        <mxCell id="Tqe3TVvIQu0EyD7yZYep-23" value="Product" style="shape=table;startSize=30;container=1;collapsible=1;childLayout=tableLayout;fixedRows=1;rowLines=0;fontStyle=1;align=center;resizeLast=1;html=1;" parent="1" vertex="1">
          <mxGeometry x="800" y="30" width="180" height="480" as="geometry" />
        </mxCell>
        <mxCell id="Tqe3TVvIQu0EyD7yZYep-24" value="" style="shape=tableRow;horizontal=0;startSize=0;swimlaneHead=0;swimlaneBody=0;fillColor=none;collapsible=0;dropTarget=0;points=[[0,0.5],[1,0.5]];portConstraint=eastwest;top=0;left=0;right=0;bottom=1;" parent="Tqe3TVvIQu0EyD7yZYep-23" vertex="1">
          <mxGeometry y="30" width="180" height="30" as="geometry" />
        </mxCell>
        <mxCell id="Tqe3TVvIQu0EyD7yZYep-25" value="PK" style="shape=partialRectangle;connectable=0;fillColor=none;top=0;left=0;bottom=0;right=0;fontStyle=1;overflow=hidden;whiteSpace=wrap;html=1;" parent="Tqe3TVvIQu0EyD7yZYep-24" vertex="1">
          <mxGeometry width="30" height="30" as="geometry">
            <mxRectangle width="30" height="30" as="alternateBounds" />
          </mxGeometry>
        </mxCell>
        <mxCell id="Tqe3TVvIQu0EyD7yZYep-26" value="productID" style="shape=partialRectangle;connectable=0;fillColor=none;top=0;left=0;bottom=0;right=0;align=left;spacingLeft=6;fontStyle=5;overflow=hidden;whiteSpace=wrap;html=1;" parent="Tqe3TVvIQu0EyD7yZYep-24" vertex="1">
          <mxGeometry x="30" width="150" height="30" as="geometry">
            <mxRectangle width="150" height="30" as="alternateBounds" />
          </mxGeometry>
        </mxCell>
        <mxCell id="Tqe3TVvIQu0EyD7yZYep-27" value="" style="shape=tableRow;horizontal=0;startSize=0;swimlaneHead=0;swimlaneBody=0;fillColor=none;collapsible=0;dropTarget=0;points=[[0,0.5],[1,0.5]];portConstraint=eastwest;top=0;left=0;right=0;bottom=0;" parent="Tqe3TVvIQu0EyD7yZYep-23" vertex="1">
          <mxGeometry y="60" width="180" height="30" as="geometry" />
        </mxCell>
        <mxCell id="Tqe3TVvIQu0EyD7yZYep-28" value="" style="shape=partialRectangle;connectable=0;fillColor=none;top=0;left=0;bottom=0;right=0;editable=1;overflow=hidden;whiteSpace=wrap;html=1;" parent="Tqe3TVvIQu0EyD7yZYep-27" vertex="1">
          <mxGeometry width="30" height="30" as="geometry">
            <mxRectangle width="30" height="30" as="alternateBounds" />
          </mxGeometry>
        </mxCell>
        <mxCell id="Tqe3TVvIQu0EyD7yZYep-29" value="productName" style="shape=partialRectangle;connectable=0;fillColor=none;top=0;left=0;bottom=0;right=0;align=left;spacingLeft=6;overflow=hidden;whiteSpace=wrap;html=1;" parent="Tqe3TVvIQu0EyD7yZYep-27" vertex="1">
          <mxGeometry x="30" width="150" height="30" as="geometry">
            <mxRectangle width="150" height="30" as="alternateBounds" />
          </mxGeometry>
        </mxCell>
        <mxCell id="Tqe3TVvIQu0EyD7yZYep-30" value="" style="shape=tableRow;horizontal=0;startSize=0;swimlaneHead=0;swimlaneBody=0;fillColor=none;collapsible=0;dropTarget=0;points=[[0,0.5],[1,0.5]];portConstraint=eastwest;top=0;left=0;right=0;bottom=0;" parent="Tqe3TVvIQu0EyD7yZYep-23" vertex="1">
          <mxGeometry y="90" width="180" height="30" as="geometry" />
        </mxCell>
        <mxCell id="Tqe3TVvIQu0EyD7yZYep-31" value="FK" style="shape=partialRectangle;connectable=0;fillColor=none;top=0;left=0;bottom=0;right=0;editable=1;overflow=hidden;whiteSpace=wrap;html=1;" parent="Tqe3TVvIQu0EyD7yZYep-30" vertex="1">
          <mxGeometry width="30" height="30" as="geometry">
            <mxRectangle width="30" height="30" as="alternateBounds" />
          </mxGeometry>
        </mxCell>
        <mxCell id="Tqe3TVvIQu0EyD7yZYep-32" value="categoriesID" style="shape=partialRectangle;connectable=0;fillColor=none;top=0;left=0;bottom=0;right=0;align=left;spacingLeft=6;overflow=hidden;whiteSpace=wrap;html=1;" parent="Tqe3TVvIQu0EyD7yZYep-30" vertex="1">
          <mxGeometry x="30" width="150" height="30" as="geometry">
            <mxRectangle width="150" height="30" as="alternateBounds" />
          </mxGeometry>
        </mxCell>
        <mxCell id="Tqe3TVvIQu0EyD7yZYep-33" value="" style="shape=tableRow;horizontal=0;startSize=0;swimlaneHead=0;swimlaneBody=0;fillColor=none;collapsible=0;dropTarget=0;points=[[0,0.5],[1,0.5]];portConstraint=eastwest;top=0;left=0;right=0;bottom=0;" parent="Tqe3TVvIQu0EyD7yZYep-23" vertex="1">
          <mxGeometry y="120" width="180" height="30" as="geometry" />
        </mxCell>
        <mxCell id="Tqe3TVvIQu0EyD7yZYep-34" value="" style="shape=partialRectangle;connectable=0;fillColor=none;top=0;left=0;bottom=0;right=0;editable=1;overflow=hidden;whiteSpace=wrap;html=1;" parent="Tqe3TVvIQu0EyD7yZYep-33" vertex="1">
          <mxGeometry width="30" height="30" as="geometry">
            <mxRectangle width="30" height="30" as="alternateBounds" />
          </mxGeometry>
        </mxCell>
        <mxCell id="Tqe3TVvIQu0EyD7yZYep-35" value="quantity" style="shape=partialRectangle;connectable=0;fillColor=none;top=0;left=0;bottom=0;right=0;align=left;spacingLeft=6;overflow=hidden;whiteSpace=wrap;html=1;" parent="Tqe3TVvIQu0EyD7yZYep-33" vertex="1">
          <mxGeometry x="30" width="150" height="30" as="geometry">
            <mxRectangle width="150" height="30" as="alternateBounds" />
          </mxGeometry>
        </mxCell>
        <mxCell id="Tqe3TVvIQu0EyD7yZYep-36" value="" style="shape=tableRow;horizontal=0;startSize=0;swimlaneHead=0;swimlaneBody=0;fillColor=none;collapsible=0;dropTarget=0;points=[[0,0.5],[1,0.5]];portConstraint=eastwest;top=0;left=0;right=0;bottom=0;" parent="Tqe3TVvIQu0EyD7yZYep-23" vertex="1">
          <mxGeometry y="150" width="180" height="30" as="geometry" />
        </mxCell>
        <mxCell id="Tqe3TVvIQu0EyD7yZYep-37" value="" style="shape=partialRectangle;connectable=0;fillColor=none;top=0;left=0;bottom=0;right=0;editable=1;overflow=hidden;whiteSpace=wrap;html=1;" parent="Tqe3TVvIQu0EyD7yZYep-36" vertex="1">
          <mxGeometry width="30" height="30" as="geometry">
            <mxRectangle width="30" height="30" as="alternateBounds" />
          </mxGeometry>
        </mxCell>
        <mxCell id="Tqe3TVvIQu0EyD7yZYep-38" value="price" style="shape=partialRectangle;connectable=0;fillColor=none;top=0;left=0;bottom=0;right=0;align=left;spacingLeft=6;overflow=hidden;whiteSpace=wrap;html=1;" parent="Tqe3TVvIQu0EyD7yZYep-36" vertex="1">
          <mxGeometry x="30" width="150" height="30" as="geometry">
            <mxRectangle width="150" height="30" as="alternateBounds" />
          </mxGeometry>
        </mxCell>
        <mxCell id="Tqe3TVvIQu0EyD7yZYep-39" value="" style="shape=tableRow;horizontal=0;startSize=0;swimlaneHead=0;swimlaneBody=0;fillColor=none;collapsible=0;dropTarget=0;points=[[0,0.5],[1,0.5]];portConstraint=eastwest;top=0;left=0;right=0;bottom=0;" parent="Tqe3TVvIQu0EyD7yZYep-23" vertex="1">
          <mxGeometry y="180" width="180" height="30" as="geometry" />
        </mxCell>
        <mxCell id="Tqe3TVvIQu0EyD7yZYep-40" value="" style="shape=partialRectangle;connectable=0;fillColor=none;top=0;left=0;bottom=0;right=0;editable=1;overflow=hidden;whiteSpace=wrap;html=1;" parent="Tqe3TVvIQu0EyD7yZYep-39" vertex="1">
          <mxGeometry width="30" height="30" as="geometry">
            <mxRectangle width="30" height="30" as="alternateBounds" />
          </mxGeometry>
        </mxCell>
        <mxCell id="Tqe3TVvIQu0EyD7yZYep-41" value="size" style="shape=partialRectangle;connectable=0;fillColor=none;top=0;left=0;bottom=0;right=0;align=left;spacingLeft=6;overflow=hidden;whiteSpace=wrap;html=1;" parent="Tqe3TVvIQu0EyD7yZYep-39" vertex="1">
          <mxGeometry x="30" width="150" height="30" as="geometry">
            <mxRectangle width="150" height="30" as="alternateBounds" />
          </mxGeometry>
        </mxCell>
        <mxCell id="Tqe3TVvIQu0EyD7yZYep-144" value="" style="shape=tableRow;horizontal=0;startSize=0;swimlaneHead=0;swimlaneBody=0;fillColor=none;collapsible=0;dropTarget=0;points=[[0,0.5],[1,0.5]];portConstraint=eastwest;top=0;left=0;right=0;bottom=0;" parent="Tqe3TVvIQu0EyD7yZYep-23" vertex="1">
          <mxGeometry y="210" width="180" height="30" as="geometry" />
        </mxCell>
        <mxCell id="Tqe3TVvIQu0EyD7yZYep-145" value="" style="shape=partialRectangle;connectable=0;fillColor=none;top=0;left=0;bottom=0;right=0;editable=1;overflow=hidden;whiteSpace=wrap;html=1;" parent="Tqe3TVvIQu0EyD7yZYep-144" vertex="1">
          <mxGeometry width="30" height="30" as="geometry">
            <mxRectangle width="30" height="30" as="alternateBounds" />
          </mxGeometry>
        </mxCell>
        <mxCell id="Tqe3TVvIQu0EyD7yZYep-146" value="color" style="shape=partialRectangle;connectable=0;fillColor=none;top=0;left=0;bottom=0;right=0;align=left;spacingLeft=6;overflow=hidden;whiteSpace=wrap;html=1;" parent="Tqe3TVvIQu0EyD7yZYep-144" vertex="1">
          <mxGeometry x="30" width="150" height="30" as="geometry">
            <mxRectangle width="150" height="30" as="alternateBounds" />
          </mxGeometry>
        </mxCell>
        <mxCell id="Tqe3TVvIQu0EyD7yZYep-42" value="" style="shape=tableRow;horizontal=0;startSize=0;swimlaneHead=0;swimlaneBody=0;fillColor=none;collapsible=0;dropTarget=0;points=[[0,0.5],[1,0.5]];portConstraint=eastwest;top=0;left=0;right=0;bottom=0;" parent="Tqe3TVvIQu0EyD7yZYep-23" vertex="1">
          <mxGeometry y="240" width="180" height="30" as="geometry" />
        </mxCell>
        <mxCell id="Tqe3TVvIQu0EyD7yZYep-43" value="" style="shape=partialRectangle;connectable=0;fillColor=none;top=0;left=0;bottom=0;right=0;editable=1;overflow=hidden;whiteSpace=wrap;html=1;" parent="Tqe3TVvIQu0EyD7yZYep-42" vertex="1">
          <mxGeometry width="30" height="30" as="geometry">
            <mxRectangle width="30" height="30" as="alternateBounds" />
          </mxGeometry>
        </mxCell>
        <mxCell id="Tqe3TVvIQu0EyD7yZYep-44" value="material" style="shape=partialRectangle;connectable=0;fillColor=none;top=0;left=0;bottom=0;right=0;align=left;spacingLeft=6;overflow=hidden;whiteSpace=wrap;html=1;" parent="Tqe3TVvIQu0EyD7yZYep-42" vertex="1">
          <mxGeometry x="30" width="150" height="30" as="geometry">
            <mxRectangle width="150" height="30" as="alternateBounds" />
          </mxGeometry>
        </mxCell>
        <mxCell id="Tqe3TVvIQu0EyD7yZYep-45" value="" style="shape=tableRow;horizontal=0;startSize=0;swimlaneHead=0;swimlaneBody=0;fillColor=none;collapsible=0;dropTarget=0;points=[[0,0.5],[1,0.5]];portConstraint=eastwest;top=0;left=0;right=0;bottom=0;" parent="Tqe3TVvIQu0EyD7yZYep-23" vertex="1">
          <mxGeometry y="270" width="180" height="30" as="geometry" />
        </mxCell>
        <mxCell id="Tqe3TVvIQu0EyD7yZYep-46" value="" style="shape=partialRectangle;connectable=0;fillColor=none;top=0;left=0;bottom=0;right=0;editable=1;overflow=hidden;whiteSpace=wrap;html=1;" parent="Tqe3TVvIQu0EyD7yZYep-45" vertex="1">
          <mxGeometry width="30" height="30" as="geometry">
            <mxRectangle width="30" height="30" as="alternateBounds" />
          </mxGeometry>
        </mxCell>
        <mxCell id="Tqe3TVvIQu0EyD7yZYep-47" value="createTime" style="shape=partialRectangle;connectable=0;fillColor=none;top=0;left=0;bottom=0;right=0;align=left;spacingLeft=6;overflow=hidden;whiteSpace=wrap;html=1;" parent="Tqe3TVvIQu0EyD7yZYep-45" vertex="1">
          <mxGeometry x="30" width="150" height="30" as="geometry">
            <mxRectangle width="150" height="30" as="alternateBounds" />
          </mxGeometry>
        </mxCell>
        <mxCell id="Tqe3TVvIQu0EyD7yZYep-54" value="" style="shape=tableRow;horizontal=0;startSize=0;swimlaneHead=0;swimlaneBody=0;fillColor=none;collapsible=0;dropTarget=0;points=[[0,0.5],[1,0.5]];portConstraint=eastwest;top=0;left=0;right=0;bottom=0;" parent="Tqe3TVvIQu0EyD7yZYep-23" vertex="1">
          <mxGeometry y="300" width="180" height="30" as="geometry" />
        </mxCell>
        <mxCell id="Tqe3TVvIQu0EyD7yZYep-55" value="" style="shape=partialRectangle;connectable=0;fillColor=none;top=0;left=0;bottom=0;right=0;editable=1;overflow=hidden;whiteSpace=wrap;html=1;" parent="Tqe3TVvIQu0EyD7yZYep-54" vertex="1">
          <mxGeometry width="30" height="30" as="geometry">
            <mxRectangle width="30" height="30" as="alternateBounds" />
          </mxGeometry>
        </mxCell>
        <mxCell id="Tqe3TVvIQu0EyD7yZYep-56" value="updateID" style="shape=partialRectangle;connectable=0;fillColor=none;top=0;left=0;bottom=0;right=0;align=left;spacingLeft=6;overflow=hidden;whiteSpace=wrap;html=1;" parent="Tqe3TVvIQu0EyD7yZYep-54" vertex="1">
          <mxGeometry x="30" width="150" height="30" as="geometry">
            <mxRectangle width="150" height="30" as="alternateBounds" />
          </mxGeometry>
        </mxCell>
        <mxCell id="Tqe3TVvIQu0EyD7yZYep-70" value="" style="shape=tableRow;horizontal=0;startSize=0;swimlaneHead=0;swimlaneBody=0;fillColor=none;collapsible=0;dropTarget=0;points=[[0,0.5],[1,0.5]];portConstraint=eastwest;top=0;left=0;right=0;bottom=0;" parent="Tqe3TVvIQu0EyD7yZYep-23" vertex="1">
          <mxGeometry y="330" width="180" height="30" as="geometry" />
        </mxCell>
        <mxCell id="Tqe3TVvIQu0EyD7yZYep-71" value="" style="shape=partialRectangle;connectable=0;fillColor=none;top=0;left=0;bottom=0;right=0;editable=1;overflow=hidden;whiteSpace=wrap;html=1;" parent="Tqe3TVvIQu0EyD7yZYep-70" vertex="1">
          <mxGeometry width="30" height="30" as="geometry">
            <mxRectangle width="30" height="30" as="alternateBounds" />
          </mxGeometry>
        </mxCell>
        <mxCell id="Tqe3TVvIQu0EyD7yZYep-72" value="description" style="shape=partialRectangle;connectable=0;fillColor=none;top=0;left=0;bottom=0;right=0;align=left;spacingLeft=6;overflow=hidden;whiteSpace=wrap;html=1;" parent="Tqe3TVvIQu0EyD7yZYep-70" vertex="1">
          <mxGeometry x="30" width="150" height="30" as="geometry">
            <mxRectangle width="150" height="30" as="alternateBounds" />
          </mxGeometry>
        </mxCell>
        <mxCell id="Tqe3TVvIQu0EyD7yZYep-73" value="" style="shape=tableRow;horizontal=0;startSize=0;swimlaneHead=0;swimlaneBody=0;fillColor=none;collapsible=0;dropTarget=0;points=[[0,0.5],[1,0.5]];portConstraint=eastwest;top=0;left=0;right=0;bottom=0;" parent="Tqe3TVvIQu0EyD7yZYep-23" vertex="1">
          <mxGeometry y="360" width="180" height="30" as="geometry" />
        </mxCell>
        <mxCell id="Tqe3TVvIQu0EyD7yZYep-74" value="" style="shape=partialRectangle;connectable=0;fillColor=none;top=0;left=0;bottom=0;right=0;editable=1;overflow=hidden;whiteSpace=wrap;html=1;" parent="Tqe3TVvIQu0EyD7yZYep-73" vertex="1">
          <mxGeometry width="30" height="30" as="geometry">
            <mxRectangle width="30" height="30" as="alternateBounds" />
          </mxGeometry>
        </mxCell>
        <mxCell id="Tqe3TVvIQu0EyD7yZYep-75" value="image" style="shape=partialRectangle;connectable=0;fillColor=none;top=0;left=0;bottom=0;right=0;align=left;spacingLeft=6;overflow=hidden;whiteSpace=wrap;html=1;" parent="Tqe3TVvIQu0EyD7yZYep-73" vertex="1">
          <mxGeometry x="30" width="150" height="30" as="geometry">
            <mxRectangle width="150" height="30" as="alternateBounds" />
          </mxGeometry>
        </mxCell>
        <mxCell id="Tqe3TVvIQu0EyD7yZYep-76" value="" style="shape=tableRow;horizontal=0;startSize=0;swimlaneHead=0;swimlaneBody=0;fillColor=none;collapsible=0;dropTarget=0;points=[[0,0.5],[1,0.5]];portConstraint=eastwest;top=0;left=0;right=0;bottom=0;" parent="Tqe3TVvIQu0EyD7yZYep-23" vertex="1">
          <mxGeometry y="390" width="180" height="30" as="geometry" />
        </mxCell>
        <mxCell id="Tqe3TVvIQu0EyD7yZYep-77" value="" style="shape=partialRectangle;connectable=0;fillColor=none;top=0;left=0;bottom=0;right=0;editable=1;overflow=hidden;whiteSpace=wrap;html=1;" parent="Tqe3TVvIQu0EyD7yZYep-76" vertex="1">
          <mxGeometry width="30" height="30" as="geometry">
            <mxRectangle width="30" height="30" as="alternateBounds" />
          </mxGeometry>
        </mxCell>
        <mxCell id="Tqe3TVvIQu0EyD7yZYep-78" value="productStatus" style="shape=partialRectangle;connectable=0;fillColor=none;top=0;left=0;bottom=0;right=0;align=left;spacingLeft=6;overflow=hidden;whiteSpace=wrap;html=1;" parent="Tqe3TVvIQu0EyD7yZYep-76" vertex="1">
          <mxGeometry x="30" width="150" height="30" as="geometry">
            <mxRectangle width="150" height="30" as="alternateBounds" />
          </mxGeometry>
        </mxCell>
        <mxCell id="Tqe3TVvIQu0EyD7yZYep-79" value="" style="shape=tableRow;horizontal=0;startSize=0;swimlaneHead=0;swimlaneBody=0;fillColor=none;collapsible=0;dropTarget=0;points=[[0,0.5],[1,0.5]];portConstraint=eastwest;top=0;left=0;right=0;bottom=0;" parent="Tqe3TVvIQu0EyD7yZYep-23" vertex="1">
          <mxGeometry y="420" width="180" height="30" as="geometry" />
        </mxCell>
        <mxCell id="Tqe3TVvIQu0EyD7yZYep-80" value="" style="shape=partialRectangle;connectable=0;fillColor=none;top=0;left=0;bottom=0;right=0;editable=1;overflow=hidden;whiteSpace=wrap;html=1;" parent="Tqe3TVvIQu0EyD7yZYep-79" vertex="1">
          <mxGeometry width="30" height="30" as="geometry">
            <mxRectangle width="30" height="30" as="alternateBounds" />
          </mxGeometry>
        </mxCell>
        <mxCell id="Tqe3TVvIQu0EyD7yZYep-81" value="manufacturer" style="shape=partialRectangle;connectable=0;fillColor=none;top=0;left=0;bottom=0;right=0;align=left;spacingLeft=6;overflow=hidden;whiteSpace=wrap;html=1;" parent="Tqe3TVvIQu0EyD7yZYep-79" vertex="1">
          <mxGeometry x="30" width="150" height="30" as="geometry">
            <mxRectangle width="150" height="30" as="alternateBounds" />
          </mxGeometry>
        </mxCell>
        <mxCell id="Tqe3TVvIQu0EyD7yZYep-82" value="" style="shape=tableRow;horizontal=0;startSize=0;swimlaneHead=0;swimlaneBody=0;fillColor=none;collapsible=0;dropTarget=0;points=[[0,0.5],[1,0.5]];portConstraint=eastwest;top=0;left=0;right=0;bottom=0;" parent="Tqe3TVvIQu0EyD7yZYep-23" vertex="1">
          <mxGeometry y="450" width="180" height="30" as="geometry" />
        </mxCell>
        <mxCell id="Tqe3TVvIQu0EyD7yZYep-83" value="" style="shape=partialRectangle;connectable=0;fillColor=none;top=0;left=0;bottom=0;right=0;editable=1;overflow=hidden;whiteSpace=wrap;html=1;" parent="Tqe3TVvIQu0EyD7yZYep-82" vertex="1">
          <mxGeometry width="30" height="30" as="geometry">
            <mxRectangle width="30" height="30" as="alternateBounds" />
          </mxGeometry>
        </mxCell>
        <mxCell id="Tqe3TVvIQu0EyD7yZYep-84" value="madeIn" style="shape=partialRectangle;connectable=0;fillColor=none;top=0;left=0;bottom=0;right=0;align=left;spacingLeft=6;overflow=hidden;whiteSpace=wrap;html=1;" parent="Tqe3TVvIQu0EyD7yZYep-82" vertex="1">
          <mxGeometry x="30" width="150" height="30" as="geometry">
            <mxRectangle width="150" height="30" as="alternateBounds" />
          </mxGeometry>
        </mxCell>
        <mxCell id="Tqe3TVvIQu0EyD7yZYep-57" value="Category" style="shape=table;startSize=30;container=1;collapsible=1;childLayout=tableLayout;fixedRows=1;rowLines=0;fontStyle=1;align=center;resizeLast=1;html=1;" parent="1" vertex="1">
          <mxGeometry x="543" y="225" width="180" height="90" as="geometry" />
        </mxCell>
        <mxCell id="Tqe3TVvIQu0EyD7yZYep-58" value="" style="shape=tableRow;horizontal=0;startSize=0;swimlaneHead=0;swimlaneBody=0;fillColor=none;collapsible=0;dropTarget=0;points=[[0,0.5],[1,0.5]];portConstraint=eastwest;top=0;left=0;right=0;bottom=1;" parent="Tqe3TVvIQu0EyD7yZYep-57" vertex="1">
          <mxGeometry y="30" width="180" height="30" as="geometry" />
        </mxCell>
        <mxCell id="Tqe3TVvIQu0EyD7yZYep-59" value="PK" style="shape=partialRectangle;connectable=0;fillColor=none;top=0;left=0;bottom=0;right=0;fontStyle=1;overflow=hidden;whiteSpace=wrap;html=1;" parent="Tqe3TVvIQu0EyD7yZYep-58" vertex="1">
          <mxGeometry width="30" height="30" as="geometry">
            <mxRectangle width="30" height="30" as="alternateBounds" />
          </mxGeometry>
        </mxCell>
        <mxCell id="Tqe3TVvIQu0EyD7yZYep-60" value="categoriesID" style="shape=partialRectangle;connectable=0;fillColor=none;top=0;left=0;bottom=0;right=0;align=left;spacingLeft=6;fontStyle=5;overflow=hidden;whiteSpace=wrap;html=1;" parent="Tqe3TVvIQu0EyD7yZYep-58" vertex="1">
          <mxGeometry x="30" width="150" height="30" as="geometry">
            <mxRectangle width="150" height="30" as="alternateBounds" />
          </mxGeometry>
        </mxCell>
        <mxCell id="Tqe3TVvIQu0EyD7yZYep-61" value="" style="shape=tableRow;horizontal=0;startSize=0;swimlaneHead=0;swimlaneBody=0;fillColor=none;collapsible=0;dropTarget=0;points=[[0,0.5],[1,0.5]];portConstraint=eastwest;top=0;left=0;right=0;bottom=0;" parent="Tqe3TVvIQu0EyD7yZYep-57" vertex="1">
          <mxGeometry y="60" width="180" height="30" as="geometry" />
        </mxCell>
        <mxCell id="Tqe3TVvIQu0EyD7yZYep-62" value="" style="shape=partialRectangle;connectable=0;fillColor=none;top=0;left=0;bottom=0;right=0;editable=1;overflow=hidden;whiteSpace=wrap;html=1;" parent="Tqe3TVvIQu0EyD7yZYep-61" vertex="1">
          <mxGeometry width="30" height="30" as="geometry">
            <mxRectangle width="30" height="30" as="alternateBounds" />
          </mxGeometry>
        </mxCell>
        <mxCell id="Tqe3TVvIQu0EyD7yZYep-63" value="categoriesName" style="shape=partialRectangle;connectable=0;fillColor=none;top=0;left=0;bottom=0;right=0;align=left;spacingLeft=6;overflow=hidden;whiteSpace=wrap;html=1;" parent="Tqe3TVvIQu0EyD7yZYep-61" vertex="1">
          <mxGeometry x="30" width="150" height="30" as="geometry">
            <mxRectangle width="150" height="30" as="alternateBounds" />
          </mxGeometry>
        </mxCell>
        <mxCell id="Tqe3TVvIQu0EyD7yZYep-85" value="Order" style="shape=table;startSize=30;container=1;collapsible=1;childLayout=tableLayout;fixedRows=1;rowLines=0;fontStyle=1;align=center;resizeLast=1;html=1;" parent="1" vertex="1">
          <mxGeometry x="280" y="30" width="180" height="240" as="geometry" />
        </mxCell>
        <mxCell id="Tqe3TVvIQu0EyD7yZYep-86" value="" style="shape=tableRow;horizontal=0;startSize=0;swimlaneHead=0;swimlaneBody=0;fillColor=none;collapsible=0;dropTarget=0;points=[[0,0.5],[1,0.5]];portConstraint=eastwest;top=0;left=0;right=0;bottom=1;" parent="Tqe3TVvIQu0EyD7yZYep-85" vertex="1">
          <mxGeometry y="30" width="180" height="30" as="geometry" />
        </mxCell>
        <mxCell id="Tqe3TVvIQu0EyD7yZYep-87" value="PK" style="shape=partialRectangle;connectable=0;fillColor=none;top=0;left=0;bottom=0;right=0;fontStyle=1;overflow=hidden;whiteSpace=wrap;html=1;" parent="Tqe3TVvIQu0EyD7yZYep-86" vertex="1">
          <mxGeometry width="30" height="30" as="geometry">
            <mxRectangle width="30" height="30" as="alternateBounds" />
          </mxGeometry>
        </mxCell>
        <mxCell id="Tqe3TVvIQu0EyD7yZYep-88" value="orderID" style="shape=partialRectangle;connectable=0;fillColor=none;top=0;left=0;bottom=0;right=0;align=left;spacingLeft=6;fontStyle=5;overflow=hidden;whiteSpace=wrap;html=1;" parent="Tqe3TVvIQu0EyD7yZYep-86" vertex="1">
          <mxGeometry x="30" width="150" height="30" as="geometry">
            <mxRectangle width="150" height="30" as="alternateBounds" />
          </mxGeometry>
        </mxCell>
        <mxCell id="Tqe3TVvIQu0EyD7yZYep-89" value="" style="shape=tableRow;horizontal=0;startSize=0;swimlaneHead=0;swimlaneBody=0;fillColor=none;collapsible=0;dropTarget=0;points=[[0,0.5],[1,0.5]];portConstraint=eastwest;top=0;left=0;right=0;bottom=0;" parent="Tqe3TVvIQu0EyD7yZYep-85" vertex="1">
          <mxGeometry y="60" width="180" height="30" as="geometry" />
        </mxCell>
        <mxCell id="Tqe3TVvIQu0EyD7yZYep-90" value="" style="shape=partialRectangle;connectable=0;fillColor=none;top=0;left=0;bottom=0;right=0;editable=1;overflow=hidden;whiteSpace=wrap;html=1;" parent="Tqe3TVvIQu0EyD7yZYep-89" vertex="1">
          <mxGeometry width="30" height="30" as="geometry">
            <mxRectangle width="30" height="30" as="alternateBounds" />
          </mxGeometry>
        </mxCell>
        <mxCell id="Tqe3TVvIQu0EyD7yZYep-91" value="quantity" style="shape=partialRectangle;connectable=0;fillColor=none;top=0;left=0;bottom=0;right=0;align=left;spacingLeft=6;overflow=hidden;whiteSpace=wrap;html=1;" parent="Tqe3TVvIQu0EyD7yZYep-89" vertex="1">
          <mxGeometry x="30" width="150" height="30" as="geometry">
            <mxRectangle width="150" height="30" as="alternateBounds" />
          </mxGeometry>
        </mxCell>
        <mxCell id="Tqe3TVvIQu0EyD7yZYep-92" value="" style="shape=tableRow;horizontal=0;startSize=0;swimlaneHead=0;swimlaneBody=0;fillColor=none;collapsible=0;dropTarget=0;points=[[0,0.5],[1,0.5]];portConstraint=eastwest;top=0;left=0;right=0;bottom=0;" parent="Tqe3TVvIQu0EyD7yZYep-85" vertex="1">
          <mxGeometry y="90" width="180" height="30" as="geometry" />
        </mxCell>
        <mxCell id="Tqe3TVvIQu0EyD7yZYep-93" value="FK" style="shape=partialRectangle;connectable=0;fillColor=none;top=0;left=0;bottom=0;right=0;editable=1;overflow=hidden;whiteSpace=wrap;html=1;" parent="Tqe3TVvIQu0EyD7yZYep-92" vertex="1">
          <mxGeometry width="30" height="30" as="geometry">
            <mxRectangle width="30" height="30" as="alternateBounds" />
          </mxGeometry>
        </mxCell>
        <mxCell id="Tqe3TVvIQu0EyD7yZYep-94" value="accountID" style="shape=partialRectangle;connectable=0;fillColor=none;top=0;left=0;bottom=0;right=0;align=left;spacingLeft=6;overflow=hidden;whiteSpace=wrap;html=1;" parent="Tqe3TVvIQu0EyD7yZYep-92" vertex="1">
          <mxGeometry x="30" width="150" height="30" as="geometry">
            <mxRectangle width="150" height="30" as="alternateBounds" />
          </mxGeometry>
        </mxCell>
        <mxCell id="Tqe3TVvIQu0EyD7yZYep-95" value="" style="shape=tableRow;horizontal=0;startSize=0;swimlaneHead=0;swimlaneBody=0;fillColor=none;collapsible=0;dropTarget=0;points=[[0,0.5],[1,0.5]];portConstraint=eastwest;top=0;left=0;right=0;bottom=0;" parent="Tqe3TVvIQu0EyD7yZYep-85" vertex="1">
          <mxGeometry y="120" width="180" height="30" as="geometry" />
        </mxCell>
        <mxCell id="Tqe3TVvIQu0EyD7yZYep-96" value="" style="shape=partialRectangle;connectable=0;fillColor=none;top=0;left=0;bottom=0;right=0;editable=1;overflow=hidden;whiteSpace=wrap;html=1;" parent="Tqe3TVvIQu0EyD7yZYep-95" vertex="1">
          <mxGeometry width="30" height="30" as="geometry">
            <mxRectangle width="30" height="30" as="alternateBounds" />
          </mxGeometry>
        </mxCell>
        <mxCell id="Tqe3TVvIQu0EyD7yZYep-97" value="orderStatus" style="shape=partialRectangle;connectable=0;fillColor=none;top=0;left=0;bottom=0;right=0;align=left;spacingLeft=6;overflow=hidden;whiteSpace=wrap;html=1;" parent="Tqe3TVvIQu0EyD7yZYep-95" vertex="1">
          <mxGeometry x="30" width="150" height="30" as="geometry">
            <mxRectangle width="150" height="30" as="alternateBounds" />
          </mxGeometry>
        </mxCell>
        <mxCell id="Tqe3TVvIQu0EyD7yZYep-98" value="" style="shape=tableRow;horizontal=0;startSize=0;swimlaneHead=0;swimlaneBody=0;fillColor=none;collapsible=0;dropTarget=0;points=[[0,0.5],[1,0.5]];portConstraint=eastwest;top=0;left=0;right=0;bottom=0;" parent="Tqe3TVvIQu0EyD7yZYep-85" vertex="1">
          <mxGeometry y="150" width="180" height="30" as="geometry" />
        </mxCell>
        <mxCell id="Tqe3TVvIQu0EyD7yZYep-99" value="" style="shape=partialRectangle;connectable=0;fillColor=none;top=0;left=0;bottom=0;right=0;editable=1;overflow=hidden;whiteSpace=wrap;html=1;" parent="Tqe3TVvIQu0EyD7yZYep-98" vertex="1">
          <mxGeometry width="30" height="30" as="geometry">
            <mxRectangle width="30" height="30" as="alternateBounds" />
          </mxGeometry>
        </mxCell>
        <mxCell id="Tqe3TVvIQu0EyD7yZYep-100" value="subtotal" style="shape=partialRectangle;connectable=0;fillColor=none;top=0;left=0;bottom=0;right=0;align=left;spacingLeft=6;overflow=hidden;whiteSpace=wrap;html=1;" parent="Tqe3TVvIQu0EyD7yZYep-98" vertex="1">
          <mxGeometry x="30" width="150" height="30" as="geometry">
            <mxRectangle width="150" height="30" as="alternateBounds" />
          </mxGeometry>
        </mxCell>
        <mxCell id="Tqe3TVvIQu0EyD7yZYep-147" value="" style="shape=tableRow;horizontal=0;startSize=0;swimlaneHead=0;swimlaneBody=0;fillColor=none;collapsible=0;dropTarget=0;points=[[0,0.5],[1,0.5]];portConstraint=eastwest;top=0;left=0;right=0;bottom=0;" parent="Tqe3TVvIQu0EyD7yZYep-85" vertex="1">
          <mxGeometry y="180" width="180" height="30" as="geometry" />
        </mxCell>
        <mxCell id="Tqe3TVvIQu0EyD7yZYep-148" value="" style="shape=partialRectangle;connectable=0;fillColor=none;top=0;left=0;bottom=0;right=0;editable=1;overflow=hidden;whiteSpace=wrap;html=1;" parent="Tqe3TVvIQu0EyD7yZYep-147" vertex="1">
          <mxGeometry width="30" height="30" as="geometry">
            <mxRectangle width="30" height="30" as="alternateBounds" />
          </mxGeometry>
        </mxCell>
        <mxCell id="Tqe3TVvIQu0EyD7yZYep-149" value="total" style="shape=partialRectangle;connectable=0;fillColor=none;top=0;left=0;bottom=0;right=0;align=left;spacingLeft=6;overflow=hidden;whiteSpace=wrap;html=1;" parent="Tqe3TVvIQu0EyD7yZYep-147" vertex="1">
          <mxGeometry x="30" width="150" height="30" as="geometry">
            <mxRectangle width="150" height="30" as="alternateBounds" />
          </mxGeometry>
        </mxCell>
        <mxCell id="Tqe3TVvIQu0EyD7yZYep-150" value="" style="shape=tableRow;horizontal=0;startSize=0;swimlaneHead=0;swimlaneBody=0;fillColor=none;collapsible=0;dropTarget=0;points=[[0,0.5],[1,0.5]];portConstraint=eastwest;top=0;left=0;right=0;bottom=0;" parent="Tqe3TVvIQu0EyD7yZYep-85" vertex="1">
          <mxGeometry y="210" width="180" height="30" as="geometry" />
        </mxCell>
        <mxCell id="Tqe3TVvIQu0EyD7yZYep-151" value="" style="shape=partialRectangle;connectable=0;fillColor=none;top=0;left=0;bottom=0;right=0;editable=1;overflow=hidden;whiteSpace=wrap;html=1;" parent="Tqe3TVvIQu0EyD7yZYep-150" vertex="1">
          <mxGeometry width="30" height="30" as="geometry">
            <mxRectangle width="30" height="30" as="alternateBounds" />
          </mxGeometry>
        </mxCell>
        <mxCell id="Tqe3TVvIQu0EyD7yZYep-152" value="note" style="shape=partialRectangle;connectable=0;fillColor=none;top=0;left=0;bottom=0;right=0;align=left;spacingLeft=6;overflow=hidden;whiteSpace=wrap;html=1;" parent="Tqe3TVvIQu0EyD7yZYep-150" vertex="1">
          <mxGeometry x="30" width="150" height="30" as="geometry">
            <mxRectangle width="150" height="30" as="alternateBounds" />
          </mxGeometry>
        </mxCell>
        <mxCell id="Tqe3TVvIQu0EyD7yZYep-153" value="OrderDetail" style="shape=table;startSize=30;container=1;collapsible=1;childLayout=tableLayout;fixedRows=1;rowLines=0;fontStyle=1;align=center;resizeLast=1;html=1;" parent="1" vertex="1">
          <mxGeometry x="521" y="-2" width="180" height="210" as="geometry" />
        </mxCell>
        <mxCell id="Tqe3TVvIQu0EyD7yZYep-154" value="" style="shape=tableRow;horizontal=0;startSize=0;swimlaneHead=0;swimlaneBody=0;fillColor=none;collapsible=0;dropTarget=0;points=[[0,0.5],[1,0.5]];portConstraint=eastwest;top=0;left=0;right=0;bottom=1;" parent="Tqe3TVvIQu0EyD7yZYep-153" vertex="1">
          <mxGeometry y="30" width="180" height="30" as="geometry" />
        </mxCell>
        <mxCell id="Tqe3TVvIQu0EyD7yZYep-155" value="PK,FK" style="shape=partialRectangle;connectable=0;fillColor=none;top=0;left=0;bottom=0;right=0;fontStyle=1;overflow=hidden;whiteSpace=wrap;html=1;" parent="Tqe3TVvIQu0EyD7yZYep-154" vertex="1">
          <mxGeometry width="50.95001220703125" height="30" as="geometry">
            <mxRectangle width="50.95001220703125" height="30" as="alternateBounds" />
          </mxGeometry>
        </mxCell>
        <mxCell id="Tqe3TVvIQu0EyD7yZYep-156" value="orderID" style="shape=partialRectangle;connectable=0;fillColor=none;top=0;left=0;bottom=0;right=0;align=left;spacingLeft=6;fontStyle=5;overflow=hidden;whiteSpace=wrap;html=1;" parent="Tqe3TVvIQu0EyD7yZYep-154" vertex="1">
          <mxGeometry x="50.95001220703125" width="129.04998779296875" height="30" as="geometry">
            <mxRectangle width="129.04998779296875" height="30" as="alternateBounds" />
          </mxGeometry>
        </mxCell>
        <mxCell id="Tqe3TVvIQu0EyD7yZYep-166" value="" style="shape=tableRow;horizontal=0;startSize=0;swimlaneHead=0;swimlaneBody=0;fillColor=none;collapsible=0;dropTarget=0;points=[[0,0.5],[1,0.5]];portConstraint=eastwest;top=0;left=0;right=0;bottom=1;" parent="Tqe3TVvIQu0EyD7yZYep-153" vertex="1">
          <mxGeometry y="60" width="180" height="30" as="geometry" />
        </mxCell>
        <mxCell id="Tqe3TVvIQu0EyD7yZYep-167" value="PK,FK" style="shape=partialRectangle;connectable=0;fillColor=none;top=0;left=0;bottom=0;right=0;fontStyle=1;overflow=hidden;whiteSpace=wrap;html=1;" parent="Tqe3TVvIQu0EyD7yZYep-166" vertex="1">
          <mxGeometry width="50.95001220703125" height="30" as="geometry">
            <mxRectangle width="50.95001220703125" height="30" as="alternateBounds" />
          </mxGeometry>
        </mxCell>
        <mxCell id="Tqe3TVvIQu0EyD7yZYep-168" value="productID" style="shape=partialRectangle;connectable=0;fillColor=none;top=0;left=0;bottom=0;right=0;align=left;spacingLeft=6;fontStyle=5;overflow=hidden;whiteSpace=wrap;html=1;" parent="Tqe3TVvIQu0EyD7yZYep-166" vertex="1">
          <mxGeometry x="50.95001220703125" width="129.04998779296875" height="30" as="geometry">
            <mxRectangle width="129.04998779296875" height="30" as="alternateBounds" />
          </mxGeometry>
        </mxCell>
        <mxCell id="Tqe3TVvIQu0EyD7yZYep-157" value="" style="shape=tableRow;horizontal=0;startSize=0;swimlaneHead=0;swimlaneBody=0;fillColor=none;collapsible=0;dropTarget=0;points=[[0,0.5],[1,0.5]];portConstraint=eastwest;top=0;left=0;right=0;bottom=0;" parent="Tqe3TVvIQu0EyD7yZYep-153" vertex="1">
          <mxGeometry y="90" width="180" height="30" as="geometry" />
        </mxCell>
        <mxCell id="Tqe3TVvIQu0EyD7yZYep-158" value="" style="shape=partialRectangle;connectable=0;fillColor=none;top=0;left=0;bottom=0;right=0;editable=1;overflow=hidden;whiteSpace=wrap;html=1;" parent="Tqe3TVvIQu0EyD7yZYep-157" vertex="1">
          <mxGeometry width="50.95001220703125" height="30" as="geometry">
            <mxRectangle width="50.95001220703125" height="30" as="alternateBounds" />
          </mxGeometry>
        </mxCell>
        <mxCell id="Tqe3TVvIQu0EyD7yZYep-159" value="quantity" style="shape=partialRectangle;connectable=0;fillColor=none;top=0;left=0;bottom=0;right=0;align=left;spacingLeft=6;overflow=hidden;whiteSpace=wrap;html=1;" parent="Tqe3TVvIQu0EyD7yZYep-157" vertex="1">
          <mxGeometry x="50.95001220703125" width="129.04998779296875" height="30" as="geometry">
            <mxRectangle width="129.04998779296875" height="30" as="alternateBounds" />
          </mxGeometry>
        </mxCell>
        <mxCell id="Tqe3TVvIQu0EyD7yZYep-160" value="" style="shape=tableRow;horizontal=0;startSize=0;swimlaneHead=0;swimlaneBody=0;fillColor=none;collapsible=0;dropTarget=0;points=[[0,0.5],[1,0.5]];portConstraint=eastwest;top=0;left=0;right=0;bottom=0;" parent="Tqe3TVvIQu0EyD7yZYep-153" vertex="1">
          <mxGeometry y="120" width="180" height="30" as="geometry" />
        </mxCell>
        <mxCell id="Tqe3TVvIQu0EyD7yZYep-161" value="" style="shape=partialRectangle;connectable=0;fillColor=none;top=0;left=0;bottom=0;right=0;editable=1;overflow=hidden;whiteSpace=wrap;html=1;" parent="Tqe3TVvIQu0EyD7yZYep-160" vertex="1">
          <mxGeometry width="50.95001220703125" height="30" as="geometry">
            <mxRectangle width="50.95001220703125" height="30" as="alternateBounds" />
          </mxGeometry>
        </mxCell>
        <mxCell id="Tqe3TVvIQu0EyD7yZYep-162" value="total" style="shape=partialRectangle;connectable=0;fillColor=none;top=0;left=0;bottom=0;right=0;align=left;spacingLeft=6;overflow=hidden;whiteSpace=wrap;html=1;" parent="Tqe3TVvIQu0EyD7yZYep-160" vertex="1">
          <mxGeometry x="50.95001220703125" width="129.04998779296875" height="30" as="geometry">
            <mxRectangle width="129.04998779296875" height="30" as="alternateBounds" />
          </mxGeometry>
        </mxCell>
        <mxCell id="JcD8GRca0Y4Sereimufb-17" value="" style="shape=tableRow;horizontal=0;startSize=0;swimlaneHead=0;swimlaneBody=0;fillColor=none;collapsible=0;dropTarget=0;points=[[0,0.5],[1,0.5]];portConstraint=eastwest;top=0;left=0;right=0;bottom=0;" parent="Tqe3TVvIQu0EyD7yZYep-153" vertex="1">
          <mxGeometry y="150" width="180" height="30" as="geometry" />
        </mxCell>
        <mxCell id="JcD8GRca0Y4Sereimufb-18" value="" style="shape=partialRectangle;connectable=0;fillColor=none;top=0;left=0;bottom=0;right=0;editable=1;overflow=hidden;whiteSpace=wrap;html=1;" parent="JcD8GRca0Y4Sereimufb-17" vertex="1">
          <mxGeometry width="50.95001220703125" height="30" as="geometry">
            <mxRectangle width="50.95001220703125" height="30" as="alternateBounds" />
          </mxGeometry>
        </mxCell>
        <mxCell id="JcD8GRca0Y4Sereimufb-19" value="size" style="shape=partialRectangle;connectable=0;fillColor=none;top=0;left=0;bottom=0;right=0;align=left;spacingLeft=6;overflow=hidden;whiteSpace=wrap;html=1;" parent="JcD8GRca0Y4Sereimufb-17" vertex="1">
          <mxGeometry x="50.95001220703125" width="129.04998779296875" height="30" as="geometry">
            <mxRectangle width="129.04998779296875" height="30" as="alternateBounds" />
          </mxGeometry>
        </mxCell>
        <mxCell id="JcD8GRca0Y4Sereimufb-20" value="" style="shape=tableRow;horizontal=0;startSize=0;swimlaneHead=0;swimlaneBody=0;fillColor=none;collapsible=0;dropTarget=0;points=[[0,0.5],[1,0.5]];portConstraint=eastwest;top=0;left=0;right=0;bottom=0;" parent="Tqe3TVvIQu0EyD7yZYep-153" vertex="1">
          <mxGeometry y="180" width="180" height="30" as="geometry" />
        </mxCell>
        <mxCell id="JcD8GRca0Y4Sereimufb-21" value="" style="shape=partialRectangle;connectable=0;fillColor=none;top=0;left=0;bottom=0;right=0;editable=1;overflow=hidden;whiteSpace=wrap;html=1;" parent="JcD8GRca0Y4Sereimufb-20" vertex="1">
          <mxGeometry width="50.95001220703125" height="30" as="geometry">
            <mxRectangle width="50.95001220703125" height="30" as="alternateBounds" />
          </mxGeometry>
        </mxCell>
        <mxCell id="JcD8GRca0Y4Sereimufb-22" value="color" style="shape=partialRectangle;connectable=0;fillColor=none;top=0;left=0;bottom=0;right=0;align=left;spacingLeft=6;overflow=hidden;whiteSpace=wrap;html=1;" parent="JcD8GRca0Y4Sereimufb-20" vertex="1">
          <mxGeometry x="50.95001220703125" width="129.04998779296875" height="30" as="geometry">
            <mxRectangle width="129.04998779296875" height="30" as="alternateBounds" />
          </mxGeometry>
        </mxCell>
        <mxCell id="Tqe3TVvIQu0EyD7yZYep-169" value="" style="edgeStyle=entityRelationEdgeStyle;fontSize=12;html=1;endArrow=ERoneToMany;startArrow=ERmandOne;rounded=0;" parent="1" source="Tqe3TVvIQu0EyD7yZYep-2" target="Tqe3TVvIQu0EyD7yZYep-92" edge="1">
          <mxGeometry width="100" height="100" relative="1" as="geometry">
            <mxPoint x="500" y="290" as="sourcePoint" />
            <mxPoint x="600" y="190" as="targetPoint" />
          </mxGeometry>
        </mxCell>
        <mxCell id="Tqe3TVvIQu0EyD7yZYep-170" value="" style="edgeStyle=entityRelationEdgeStyle;fontSize=12;html=1;endArrow=ERoneToMany;startArrow=ERmandOne;rounded=0;" parent="1" source="Tqe3TVvIQu0EyD7yZYep-86" target="Tqe3TVvIQu0EyD7yZYep-154" edge="1">
          <mxGeometry width="100" height="100" relative="1" as="geometry">
            <mxPoint x="500" y="290" as="sourcePoint" />
            <mxPoint x="600" y="190" as="targetPoint" />
          </mxGeometry>
        </mxCell>
        <mxCell id="Tqe3TVvIQu0EyD7yZYep-171" value="" style="edgeStyle=entityRelationEdgeStyle;fontSize=12;html=1;endArrow=ERoneToMany;rounded=0;startArrow=ERmandOne;startFill=0;" parent="1" source="Tqe3TVvIQu0EyD7yZYep-166" target="Tqe3TVvIQu0EyD7yZYep-24" edge="1">
          <mxGeometry width="100" height="100" relative="1" as="geometry">
            <mxPoint x="500" y="290" as="sourcePoint" />
            <mxPoint x="600" y="190" as="targetPoint" />
          </mxGeometry>
        </mxCell>
        <mxCell id="Tqe3TVvIQu0EyD7yZYep-172" value="" style="edgeStyle=entityRelationEdgeStyle;fontSize=12;html=1;endArrow=ERmandOne;startArrow=ERmandOne;rounded=0;" parent="1" source="Tqe3TVvIQu0EyD7yZYep-58" target="Tqe3TVvIQu0EyD7yZYep-30" edge="1">
          <mxGeometry width="100" height="100" relative="1" as="geometry">
            <mxPoint x="500" y="290" as="sourcePoint" />
            <mxPoint x="600" y="190" as="targetPoint" />
          </mxGeometry>
        </mxCell>
        <mxCell id="Tqe3TVvIQu0EyD7yZYep-173" value="Payment" style="shape=table;startSize=29;container=1;collapsible=1;childLayout=tableLayout;fixedRows=1;rowLines=0;fontStyle=1;align=center;resizeLast=1;html=1;" parent="1" vertex="1">
          <mxGeometry x="-25" y="25" width="180" height="360" as="geometry" />
        </mxCell>
        <mxCell id="Tqe3TVvIQu0EyD7yZYep-174" value="" style="shape=tableRow;horizontal=0;startSize=0;swimlaneHead=0;swimlaneBody=0;fillColor=none;collapsible=0;dropTarget=0;points=[[0,0.5],[1,0.5]];portConstraint=eastwest;top=0;left=0;right=0;bottom=1;" parent="Tqe3TVvIQu0EyD7yZYep-173" vertex="1">
          <mxGeometry y="29" width="180" height="30" as="geometry" />
        </mxCell>
        <mxCell id="Tqe3TVvIQu0EyD7yZYep-175" value="PK" style="shape=partialRectangle;connectable=0;fillColor=none;top=0;left=0;bottom=0;right=0;fontStyle=1;overflow=hidden;whiteSpace=wrap;html=1;" parent="Tqe3TVvIQu0EyD7yZYep-174" vertex="1">
          <mxGeometry width="30" height="30" as="geometry">
            <mxRectangle width="30" height="30" as="alternateBounds" />
          </mxGeometry>
        </mxCell>
        <mxCell id="Tqe3TVvIQu0EyD7yZYep-176" value="paymentID" style="shape=partialRectangle;connectable=0;fillColor=none;top=0;left=0;bottom=0;right=0;align=left;spacingLeft=6;fontStyle=5;overflow=hidden;whiteSpace=wrap;html=1;" parent="Tqe3TVvIQu0EyD7yZYep-174" vertex="1">
          <mxGeometry x="30" width="150" height="30" as="geometry">
            <mxRectangle width="150" height="30" as="alternateBounds" />
          </mxGeometry>
        </mxCell>
        <mxCell id="Tqe3TVvIQu0EyD7yZYep-177" value="" style="shape=tableRow;horizontal=0;startSize=0;swimlaneHead=0;swimlaneBody=0;fillColor=none;collapsible=0;dropTarget=0;points=[[0,0.5],[1,0.5]];portConstraint=eastwest;top=0;left=0;right=0;bottom=0;" parent="Tqe3TVvIQu0EyD7yZYep-173" vertex="1">
          <mxGeometry y="59" width="180" height="30" as="geometry" />
        </mxCell>
        <mxCell id="Tqe3TVvIQu0EyD7yZYep-178" value="" style="shape=partialRectangle;connectable=0;fillColor=none;top=0;left=0;bottom=0;right=0;editable=1;overflow=hidden;whiteSpace=wrap;html=1;" parent="Tqe3TVvIQu0EyD7yZYep-177" vertex="1">
          <mxGeometry width="30" height="30" as="geometry">
            <mxRectangle width="30" height="30" as="alternateBounds" />
          </mxGeometry>
        </mxCell>
        <mxCell id="Tqe3TVvIQu0EyD7yZYep-179" value="createTime" style="shape=partialRectangle;connectable=0;fillColor=none;top=0;left=0;bottom=0;right=0;align=left;spacingLeft=6;overflow=hidden;whiteSpace=wrap;html=1;" parent="Tqe3TVvIQu0EyD7yZYep-177" vertex="1">
          <mxGeometry x="30" width="150" height="30" as="geometry">
            <mxRectangle width="150" height="30" as="alternateBounds" />
          </mxGeometry>
        </mxCell>
        <mxCell id="MDauNFDRDXpXZ2EO1rvp-1" value="" style="shape=tableRow;horizontal=0;startSize=0;swimlaneHead=0;swimlaneBody=0;fillColor=none;collapsible=0;dropTarget=0;points=[[0,0.5],[1,0.5]];portConstraint=eastwest;top=0;left=0;right=0;bottom=0;" parent="Tqe3TVvIQu0EyD7yZYep-173" vertex="1">
          <mxGeometry y="89" width="180" height="30" as="geometry" />
        </mxCell>
        <mxCell id="MDauNFDRDXpXZ2EO1rvp-2" value="" style="shape=partialRectangle;connectable=0;fillColor=none;top=0;left=0;bottom=0;right=0;editable=1;overflow=hidden;whiteSpace=wrap;html=1;" parent="MDauNFDRDXpXZ2EO1rvp-1" vertex="1">
          <mxGeometry width="30" height="30" as="geometry">
            <mxRectangle width="30" height="30" as="alternateBounds" />
          </mxGeometry>
        </mxCell>
        <mxCell id="MDauNFDRDXpXZ2EO1rvp-3" value="feeShip" style="shape=partialRectangle;connectable=0;fillColor=none;top=0;left=0;bottom=0;right=0;align=left;spacingLeft=6;overflow=hidden;whiteSpace=wrap;html=1;" parent="MDauNFDRDXpXZ2EO1rvp-1" vertex="1">
          <mxGeometry x="30" width="150" height="30" as="geometry">
            <mxRectangle width="150" height="30" as="alternateBounds" />
          </mxGeometry>
        </mxCell>
        <mxCell id="MDauNFDRDXpXZ2EO1rvp-4" value="" style="shape=tableRow;horizontal=0;startSize=0;swimlaneHead=0;swimlaneBody=0;fillColor=none;collapsible=0;dropTarget=0;points=[[0,0.5],[1,0.5]];portConstraint=eastwest;top=0;left=0;right=0;bottom=0;" parent="Tqe3TVvIQu0EyD7yZYep-173" vertex="1">
          <mxGeometry y="119" width="180" height="30" as="geometry" />
        </mxCell>
        <mxCell id="MDauNFDRDXpXZ2EO1rvp-5" value="" style="shape=partialRectangle;connectable=0;fillColor=none;top=0;left=0;bottom=0;right=0;editable=1;overflow=hidden;whiteSpace=wrap;html=1;" parent="MDauNFDRDXpXZ2EO1rvp-4" vertex="1">
          <mxGeometry width="30" height="30" as="geometry">
            <mxRectangle width="30" height="30" as="alternateBounds" />
          </mxGeometry>
        </mxCell>
        <mxCell id="MDauNFDRDXpXZ2EO1rvp-6" value="voucherID" style="shape=partialRectangle;connectable=0;fillColor=none;top=0;left=0;bottom=0;right=0;align=left;spacingLeft=6;overflow=hidden;whiteSpace=wrap;html=1;" parent="MDauNFDRDXpXZ2EO1rvp-4" vertex="1">
          <mxGeometry x="30" width="150" height="30" as="geometry">
            <mxRectangle width="150" height="30" as="alternateBounds" />
          </mxGeometry>
        </mxCell>
        <mxCell id="Tqe3TVvIQu0EyD7yZYep-180" value="" style="shape=tableRow;horizontal=0;startSize=0;swimlaneHead=0;swimlaneBody=0;fillColor=none;collapsible=0;dropTarget=0;points=[[0,0.5],[1,0.5]];portConstraint=eastwest;top=0;left=0;right=0;bottom=0;" parent="Tqe3TVvIQu0EyD7yZYep-173" vertex="1">
          <mxGeometry y="149" width="180" height="30" as="geometry" />
        </mxCell>
        <mxCell id="Tqe3TVvIQu0EyD7yZYep-181" value="" style="shape=partialRectangle;connectable=0;fillColor=none;top=0;left=0;bottom=0;right=0;editable=1;overflow=hidden;whiteSpace=wrap;html=1;" parent="Tqe3TVvIQu0EyD7yZYep-180" vertex="1">
          <mxGeometry width="30" height="30" as="geometry">
            <mxRectangle width="30" height="30" as="alternateBounds" />
          </mxGeometry>
        </mxCell>
        <mxCell id="Tqe3TVvIQu0EyD7yZYep-182" value="total" style="shape=partialRectangle;connectable=0;fillColor=none;top=0;left=0;bottom=0;right=0;align=left;spacingLeft=6;overflow=hidden;whiteSpace=wrap;html=1;" parent="Tqe3TVvIQu0EyD7yZYep-180" vertex="1">
          <mxGeometry x="30" width="150" height="30" as="geometry">
            <mxRectangle width="150" height="30" as="alternateBounds" />
          </mxGeometry>
        </mxCell>
        <mxCell id="Tqe3TVvIQu0EyD7yZYep-183" value="" style="shape=tableRow;horizontal=0;startSize=0;swimlaneHead=0;swimlaneBody=0;fillColor=none;collapsible=0;dropTarget=0;points=[[0,0.5],[1,0.5]];portConstraint=eastwest;top=0;left=0;right=0;bottom=0;" parent="Tqe3TVvIQu0EyD7yZYep-173" vertex="1">
          <mxGeometry y="179" width="180" height="30" as="geometry" />
        </mxCell>
        <mxCell id="Tqe3TVvIQu0EyD7yZYep-184" value="" style="shape=partialRectangle;connectable=0;fillColor=none;top=0;left=0;bottom=0;right=0;editable=1;overflow=hidden;whiteSpace=wrap;html=1;" parent="Tqe3TVvIQu0EyD7yZYep-183" vertex="1">
          <mxGeometry width="30" height="30" as="geometry">
            <mxRectangle width="30" height="30" as="alternateBounds" />
          </mxGeometry>
        </mxCell>
        <mxCell id="Tqe3TVvIQu0EyD7yZYep-185" value="paymentStatus" style="shape=partialRectangle;connectable=0;fillColor=none;top=0;left=0;bottom=0;right=0;align=left;spacingLeft=6;overflow=hidden;whiteSpace=wrap;html=1;" parent="Tqe3TVvIQu0EyD7yZYep-183" vertex="1">
          <mxGeometry x="30" width="150" height="30" as="geometry">
            <mxRectangle width="150" height="30" as="alternateBounds" />
          </mxGeometry>
        </mxCell>
        <mxCell id="Tqe3TVvIQu0EyD7yZYep-202" value="" style="shape=tableRow;horizontal=0;startSize=0;swimlaneHead=0;swimlaneBody=0;fillColor=none;collapsible=0;dropTarget=0;points=[[0,0.5],[1,0.5]];portConstraint=eastwest;top=0;left=0;right=0;bottom=0;" parent="Tqe3TVvIQu0EyD7yZYep-173" vertex="1">
          <mxGeometry y="209" width="180" height="30" as="geometry" />
        </mxCell>
        <mxCell id="Tqe3TVvIQu0EyD7yZYep-203" value="FK" style="shape=partialRectangle;connectable=0;fillColor=none;top=0;left=0;bottom=0;right=0;editable=1;overflow=hidden;whiteSpace=wrap;html=1;" parent="Tqe3TVvIQu0EyD7yZYep-202" vertex="1">
          <mxGeometry width="30" height="30" as="geometry">
            <mxRectangle width="30" height="30" as="alternateBounds" />
          </mxGeometry>
        </mxCell>
        <mxCell id="Tqe3TVvIQu0EyD7yZYep-204" value="deliveryID" style="shape=partialRectangle;connectable=0;fillColor=none;top=0;left=0;bottom=0;right=0;align=left;spacingLeft=6;overflow=hidden;whiteSpace=wrap;html=1;" parent="Tqe3TVvIQu0EyD7yZYep-202" vertex="1">
          <mxGeometry x="30" width="150" height="30" as="geometry">
            <mxRectangle width="150" height="30" as="alternateBounds" />
          </mxGeometry>
        </mxCell>
        <mxCell id="Tqe3TVvIQu0EyD7yZYep-222" value="" style="shape=tableRow;horizontal=0;startSize=0;swimlaneHead=0;swimlaneBody=0;fillColor=none;collapsible=0;dropTarget=0;points=[[0,0.5],[1,0.5]];portConstraint=eastwest;top=0;left=0;right=0;bottom=0;" parent="Tqe3TVvIQu0EyD7yZYep-173" vertex="1">
          <mxGeometry y="239" width="180" height="30" as="geometry" />
        </mxCell>
        <mxCell id="Tqe3TVvIQu0EyD7yZYep-223" value="FK" style="shape=partialRectangle;connectable=0;fillColor=none;top=0;left=0;bottom=0;right=0;editable=1;overflow=hidden;whiteSpace=wrap;html=1;" parent="Tqe3TVvIQu0EyD7yZYep-222" vertex="1">
          <mxGeometry width="30" height="30" as="geometry">
            <mxRectangle width="30" height="30" as="alternateBounds" />
          </mxGeometry>
        </mxCell>
        <mxCell id="Tqe3TVvIQu0EyD7yZYep-224" value="orderID" style="shape=partialRectangle;connectable=0;fillColor=none;top=0;left=0;bottom=0;right=0;align=left;spacingLeft=6;overflow=hidden;whiteSpace=wrap;html=1;" parent="Tqe3TVvIQu0EyD7yZYep-222" vertex="1">
          <mxGeometry x="30" width="150" height="30" as="geometry">
            <mxRectangle width="150" height="30" as="alternateBounds" />
          </mxGeometry>
        </mxCell>
        <mxCell id="ALfpEoM0DnNTNpAniod4-1" value="" style="shape=tableRow;horizontal=0;startSize=0;swimlaneHead=0;swimlaneBody=0;fillColor=none;collapsible=0;dropTarget=0;points=[[0,0.5],[1,0.5]];portConstraint=eastwest;top=0;left=0;right=0;bottom=0;" parent="Tqe3TVvIQu0EyD7yZYep-173" vertex="1">
          <mxGeometry y="269" width="180" height="30" as="geometry" />
        </mxCell>
        <mxCell id="ALfpEoM0DnNTNpAniod4-2" value="FK" style="shape=partialRectangle;connectable=0;fillColor=none;top=0;left=0;bottom=0;right=0;editable=1;overflow=hidden;whiteSpace=wrap;html=1;" parent="ALfpEoM0DnNTNpAniod4-1" vertex="1">
          <mxGeometry width="30" height="30" as="geometry">
            <mxRectangle width="30" height="30" as="alternateBounds" />
          </mxGeometry>
        </mxCell>
        <mxCell id="ALfpEoM0DnNTNpAniod4-3" value="bookingID" style="shape=partialRectangle;connectable=0;fillColor=none;top=0;left=0;bottom=0;right=0;align=left;spacingLeft=6;overflow=hidden;whiteSpace=wrap;html=1;" parent="ALfpEoM0DnNTNpAniod4-1" vertex="1">
          <mxGeometry x="30" width="150" height="30" as="geometry">
            <mxRectangle width="150" height="30" as="alternateBounds" />
          </mxGeometry>
        </mxCell>
        <mxCell id="ALfpEoM0DnNTNpAniod4-4" value="" style="shape=tableRow;horizontal=0;startSize=0;swimlaneHead=0;swimlaneBody=0;fillColor=none;collapsible=0;dropTarget=0;points=[[0,0.5],[1,0.5]];portConstraint=eastwest;top=0;left=0;right=0;bottom=0;" parent="Tqe3TVvIQu0EyD7yZYep-173" vertex="1">
          <mxGeometry y="299" width="180" height="30" as="geometry" />
        </mxCell>
        <mxCell id="ALfpEoM0DnNTNpAniod4-5" value="" style="shape=partialRectangle;connectable=0;fillColor=none;top=0;left=0;bottom=0;right=0;editable=1;overflow=hidden;whiteSpace=wrap;html=1;" parent="ALfpEoM0DnNTNpAniod4-4" vertex="1">
          <mxGeometry width="30" height="30" as="geometry">
            <mxRectangle width="30" height="30" as="alternateBounds" />
          </mxGeometry>
        </mxCell>
        <mxCell id="ALfpEoM0DnNTNpAniod4-6" value="cusPhone" style="shape=partialRectangle;connectable=0;fillColor=none;top=0;left=0;bottom=0;right=0;align=left;spacingLeft=6;overflow=hidden;whiteSpace=wrap;html=1;" parent="ALfpEoM0DnNTNpAniod4-4" vertex="1">
          <mxGeometry x="30" width="150" height="30" as="geometry">
            <mxRectangle width="150" height="30" as="alternateBounds" />
          </mxGeometry>
        </mxCell>
        <mxCell id="iV1D0tlbTL7U8QCcENui-46" value="" style="shape=tableRow;horizontal=0;startSize=0;swimlaneHead=0;swimlaneBody=0;fillColor=none;collapsible=0;dropTarget=0;points=[[0,0.5],[1,0.5]];portConstraint=eastwest;top=0;left=0;right=0;bottom=0;" parent="Tqe3TVvIQu0EyD7yZYep-173" vertex="1">
          <mxGeometry y="329" width="180" height="30" as="geometry" />
        </mxCell>
        <mxCell id="iV1D0tlbTL7U8QCcENui-47" value="" style="shape=partialRectangle;connectable=0;fillColor=none;top=0;left=0;bottom=0;right=0;editable=1;overflow=hidden;whiteSpace=wrap;html=1;" parent="iV1D0tlbTL7U8QCcENui-46" vertex="1">
          <mxGeometry width="30" height="30" as="geometry">
            <mxRectangle width="30" height="30" as="alternateBounds" />
          </mxGeometry>
        </mxCell>
        <mxCell id="iV1D0tlbTL7U8QCcENui-48" value="cusAddress" style="shape=partialRectangle;connectable=0;fillColor=none;top=0;left=0;bottom=0;right=0;align=left;spacingLeft=6;overflow=hidden;whiteSpace=wrap;html=1;" parent="iV1D0tlbTL7U8QCcENui-46" vertex="1">
          <mxGeometry x="30" width="150" height="30" as="geometry">
            <mxRectangle width="150" height="30" as="alternateBounds" />
          </mxGeometry>
        </mxCell>
        <mxCell id="Tqe3TVvIQu0EyD7yZYep-205" value="Delivery" style="shape=table;startSize=30;container=1;collapsible=1;childLayout=tableLayout;fixedRows=1;rowLines=0;fontStyle=1;align=center;resizeLast=1;html=1;" parent="1" vertex="1">
          <mxGeometry x="-277" y="97" width="180" height="120" as="geometry" />
        </mxCell>
        <mxCell id="Tqe3TVvIQu0EyD7yZYep-206" value="" style="shape=tableRow;horizontal=0;startSize=0;swimlaneHead=0;swimlaneBody=0;fillColor=none;collapsible=0;dropTarget=0;points=[[0,0.5],[1,0.5]];portConstraint=eastwest;top=0;left=0;right=0;bottom=1;" parent="Tqe3TVvIQu0EyD7yZYep-205" vertex="1">
          <mxGeometry y="30" width="180" height="30" as="geometry" />
        </mxCell>
        <mxCell id="Tqe3TVvIQu0EyD7yZYep-207" value="PK" style="shape=partialRectangle;connectable=0;fillColor=none;top=0;left=0;bottom=0;right=0;fontStyle=1;overflow=hidden;whiteSpace=wrap;html=1;" parent="Tqe3TVvIQu0EyD7yZYep-206" vertex="1">
          <mxGeometry width="30" height="30" as="geometry">
            <mxRectangle width="30" height="30" as="alternateBounds" />
          </mxGeometry>
        </mxCell>
        <mxCell id="Tqe3TVvIQu0EyD7yZYep-208" value="deliveryID" style="shape=partialRectangle;connectable=0;fillColor=none;top=0;left=0;bottom=0;right=0;align=left;spacingLeft=6;fontStyle=5;overflow=hidden;whiteSpace=wrap;html=1;" parent="Tqe3TVvIQu0EyD7yZYep-206" vertex="1">
          <mxGeometry x="30" width="150" height="30" as="geometry">
            <mxRectangle width="150" height="30" as="alternateBounds" />
          </mxGeometry>
        </mxCell>
        <mxCell id="Tqe3TVvIQu0EyD7yZYep-209" value="" style="shape=tableRow;horizontal=0;startSize=0;swimlaneHead=0;swimlaneBody=0;fillColor=none;collapsible=0;dropTarget=0;points=[[0,0.5],[1,0.5]];portConstraint=eastwest;top=0;left=0;right=0;bottom=0;" parent="Tqe3TVvIQu0EyD7yZYep-205" vertex="1">
          <mxGeometry y="60" width="180" height="30" as="geometry" />
        </mxCell>
        <mxCell id="Tqe3TVvIQu0EyD7yZYep-210" value="" style="shape=partialRectangle;connectable=0;fillColor=none;top=0;left=0;bottom=0;right=0;editable=1;overflow=hidden;whiteSpace=wrap;html=1;" parent="Tqe3TVvIQu0EyD7yZYep-209" vertex="1">
          <mxGeometry width="30" height="30" as="geometry">
            <mxRectangle width="30" height="30" as="alternateBounds" />
          </mxGeometry>
        </mxCell>
        <mxCell id="Tqe3TVvIQu0EyD7yZYep-211" value="status" style="shape=partialRectangle;connectable=0;fillColor=none;top=0;left=0;bottom=0;right=0;align=left;spacingLeft=6;overflow=hidden;whiteSpace=wrap;html=1;" parent="Tqe3TVvIQu0EyD7yZYep-209" vertex="1">
          <mxGeometry x="30" width="150" height="30" as="geometry">
            <mxRectangle width="150" height="30" as="alternateBounds" />
          </mxGeometry>
        </mxCell>
        <mxCell id="Tqe3TVvIQu0EyD7yZYep-218" value="" style="shape=tableRow;horizontal=0;startSize=0;swimlaneHead=0;swimlaneBody=0;fillColor=none;collapsible=0;dropTarget=0;points=[[0,0.5],[1,0.5]];portConstraint=eastwest;top=0;left=0;right=0;bottom=0;" parent="Tqe3TVvIQu0EyD7yZYep-205" vertex="1">
          <mxGeometry y="90" width="180" height="30" as="geometry" />
        </mxCell>
        <mxCell id="Tqe3TVvIQu0EyD7yZYep-219" value="" style="shape=partialRectangle;connectable=0;fillColor=none;top=0;left=0;bottom=0;right=0;editable=1;overflow=hidden;whiteSpace=wrap;html=1;" parent="Tqe3TVvIQu0EyD7yZYep-218" vertex="1">
          <mxGeometry width="30" height="30" as="geometry">
            <mxRectangle width="30" height="30" as="alternateBounds" />
          </mxGeometry>
        </mxCell>
        <mxCell id="Tqe3TVvIQu0EyD7yZYep-220" value="intendTime" style="shape=partialRectangle;connectable=0;fillColor=none;top=0;left=0;bottom=0;right=0;align=left;spacingLeft=6;overflow=hidden;whiteSpace=wrap;html=1;" parent="Tqe3TVvIQu0EyD7yZYep-218" vertex="1">
          <mxGeometry x="30" width="150" height="30" as="geometry">
            <mxRectangle width="150" height="30" as="alternateBounds" />
          </mxGeometry>
        </mxCell>
        <mxCell id="Tqe3TVvIQu0EyD7yZYep-221" value="" style="edgeStyle=entityRelationEdgeStyle;fontSize=12;html=1;endArrow=ERmandOne;startArrow=ERmandOne;rounded=0;" parent="1" source="Tqe3TVvIQu0EyD7yZYep-202" target="Tqe3TVvIQu0EyD7yZYep-206" edge="1">
          <mxGeometry width="100" height="100" relative="1" as="geometry">
            <mxPoint x="210" y="440" as="sourcePoint" />
            <mxPoint x="310" y="340" as="targetPoint" />
          </mxGeometry>
        </mxCell>
        <mxCell id="Tqe3TVvIQu0EyD7yZYep-225" value="" style="fontSize=12;html=1;endArrow=ERmandOne;startArrow=ERmandOne;rounded=0;entryX=0;entryY=0.5;entryDx=0;entryDy=0;exitX=1;exitY=0.5;exitDx=0;exitDy=0;" parent="1" source="Tqe3TVvIQu0EyD7yZYep-222" target="Tqe3TVvIQu0EyD7yZYep-86" edge="1">
          <mxGeometry width="100" height="100" relative="1" as="geometry">
            <mxPoint x="150" y="26" as="sourcePoint" />
            <mxPoint x="378" y="302" as="targetPoint" />
            <Array as="points">
              <mxPoint x="217" y="279" />
              <mxPoint x="222" y="77" />
            </Array>
          </mxGeometry>
        </mxCell>
        <mxCell id="Tqe3TVvIQu0EyD7yZYep-226" value="Feedback" style="shape=table;startSize=30;container=1;collapsible=1;childLayout=tableLayout;fixedRows=1;rowLines=0;fontStyle=1;align=center;resizeLast=1;html=1;" parent="1" vertex="1">
          <mxGeometry x="1065" y="439" width="180" height="238.35000610351562" as="geometry" />
        </mxCell>
        <mxCell id="Tqe3TVvIQu0EyD7yZYep-227" value="" style="shape=tableRow;horizontal=0;startSize=0;swimlaneHead=0;swimlaneBody=0;fillColor=none;collapsible=0;dropTarget=0;points=[[0,0.5],[1,0.5]];portConstraint=eastwest;top=0;left=0;right=0;bottom=1;" parent="Tqe3TVvIQu0EyD7yZYep-226" vertex="1">
          <mxGeometry y="30" width="180" height="28" as="geometry" />
        </mxCell>
        <mxCell id="Tqe3TVvIQu0EyD7yZYep-228" value="PK" style="shape=partialRectangle;connectable=0;fillColor=none;top=0;left=0;bottom=0;right=0;fontStyle=1;overflow=hidden;whiteSpace=wrap;html=1;" parent="Tqe3TVvIQu0EyD7yZYep-227" vertex="1">
          <mxGeometry width="50.949951171875" height="28" as="geometry">
            <mxRectangle width="50.949951171875" height="28" as="alternateBounds" />
          </mxGeometry>
        </mxCell>
        <mxCell id="Tqe3TVvIQu0EyD7yZYep-229" value="feedbackID" style="shape=partialRectangle;connectable=0;fillColor=none;top=0;left=0;bottom=0;right=0;align=left;spacingLeft=6;fontStyle=5;overflow=hidden;whiteSpace=wrap;html=1;" parent="Tqe3TVvIQu0EyD7yZYep-227" vertex="1">
          <mxGeometry x="50.949951171875" width="129.050048828125" height="28" as="geometry">
            <mxRectangle width="129.050048828125" height="28" as="alternateBounds" />
          </mxGeometry>
        </mxCell>
        <mxCell id="Tqe3TVvIQu0EyD7yZYep-239" value="" style="shape=tableRow;horizontal=0;startSize=0;swimlaneHead=0;swimlaneBody=0;fillColor=none;collapsible=0;dropTarget=0;points=[[0,0.5],[1,0.5]];portConstraint=eastwest;top=0;left=0;right=0;bottom=1;" parent="Tqe3TVvIQu0EyD7yZYep-226" vertex="1">
          <mxGeometry y="58" width="180" height="30" as="geometry" />
        </mxCell>
        <mxCell id="Tqe3TVvIQu0EyD7yZYep-240" value="PK,FK" style="shape=partialRectangle;connectable=0;fillColor=none;top=0;left=0;bottom=0;right=0;fontStyle=1;overflow=hidden;whiteSpace=wrap;html=1;" parent="Tqe3TVvIQu0EyD7yZYep-239" vertex="1">
          <mxGeometry width="50.949951171875" height="30" as="geometry">
            <mxRectangle width="50.949951171875" height="30" as="alternateBounds" />
          </mxGeometry>
        </mxCell>
        <mxCell id="Tqe3TVvIQu0EyD7yZYep-241" value="productID" style="shape=partialRectangle;connectable=0;fillColor=none;top=0;left=0;bottom=0;right=0;align=left;spacingLeft=6;fontStyle=5;overflow=hidden;whiteSpace=wrap;html=1;" parent="Tqe3TVvIQu0EyD7yZYep-239" vertex="1">
          <mxGeometry x="50.949951171875" width="129.050048828125" height="30" as="geometry">
            <mxRectangle width="129.050048828125" height="30" as="alternateBounds" />
          </mxGeometry>
        </mxCell>
        <mxCell id="Tqe3TVvIQu0EyD7yZYep-230" value="" style="shape=tableRow;horizontal=0;startSize=0;swimlaneHead=0;swimlaneBody=0;fillColor=none;collapsible=0;dropTarget=0;points=[[0,0.5],[1,0.5]];portConstraint=eastwest;top=0;left=0;right=0;bottom=0;" parent="Tqe3TVvIQu0EyD7yZYep-226" vertex="1">
          <mxGeometry y="88" width="180" height="30" as="geometry" />
        </mxCell>
        <mxCell id="Tqe3TVvIQu0EyD7yZYep-231" value="" style="shape=partialRectangle;connectable=0;fillColor=none;top=0;left=0;bottom=0;right=0;editable=1;overflow=hidden;whiteSpace=wrap;html=1;" parent="Tqe3TVvIQu0EyD7yZYep-230" vertex="1">
          <mxGeometry width="50.949951171875" height="30" as="geometry">
            <mxRectangle width="50.949951171875" height="30" as="alternateBounds" />
          </mxGeometry>
        </mxCell>
        <mxCell id="Tqe3TVvIQu0EyD7yZYep-232" value="createTime" style="shape=partialRectangle;connectable=0;fillColor=none;top=0;left=0;bottom=0;right=0;align=left;spacingLeft=6;overflow=hidden;whiteSpace=wrap;html=1;" parent="Tqe3TVvIQu0EyD7yZYep-230" vertex="1">
          <mxGeometry x="50.949951171875" width="129.050048828125" height="30" as="geometry">
            <mxRectangle width="129.050048828125" height="30" as="alternateBounds" />
          </mxGeometry>
        </mxCell>
        <mxCell id="Tqe3TVvIQu0EyD7yZYep-233" value="" style="shape=tableRow;horizontal=0;startSize=0;swimlaneHead=0;swimlaneBody=0;fillColor=none;collapsible=0;dropTarget=0;points=[[0,0.5],[1,0.5]];portConstraint=eastwest;top=0;left=0;right=0;bottom=0;" parent="Tqe3TVvIQu0EyD7yZYep-226" vertex="1">
          <mxGeometry y="118" width="180" height="30" as="geometry" />
        </mxCell>
        <mxCell id="Tqe3TVvIQu0EyD7yZYep-234" value="FK" style="shape=partialRectangle;connectable=0;fillColor=none;top=0;left=0;bottom=0;right=0;editable=1;overflow=hidden;whiteSpace=wrap;html=1;" parent="Tqe3TVvIQu0EyD7yZYep-233" vertex="1">
          <mxGeometry width="50.949951171875" height="30" as="geometry">
            <mxRectangle width="50.949951171875" height="30" as="alternateBounds" />
          </mxGeometry>
        </mxCell>
        <mxCell id="Tqe3TVvIQu0EyD7yZYep-235" value="accountID" style="shape=partialRectangle;connectable=0;fillColor=none;top=0;left=0;bottom=0;right=0;align=left;spacingLeft=6;overflow=hidden;whiteSpace=wrap;html=1;" parent="Tqe3TVvIQu0EyD7yZYep-233" vertex="1">
          <mxGeometry x="50.949951171875" width="129.050048828125" height="30" as="geometry">
            <mxRectangle width="129.050048828125" height="30" as="alternateBounds" />
          </mxGeometry>
        </mxCell>
        <mxCell id="Tqe3TVvIQu0EyD7yZYep-236" value="" style="shape=tableRow;horizontal=0;startSize=0;swimlaneHead=0;swimlaneBody=0;fillColor=none;collapsible=0;dropTarget=0;points=[[0,0.5],[1,0.5]];portConstraint=eastwest;top=0;left=0;right=0;bottom=0;" parent="Tqe3TVvIQu0EyD7yZYep-226" vertex="1">
          <mxGeometry y="148" width="180" height="30" as="geometry" />
        </mxCell>
        <mxCell id="Tqe3TVvIQu0EyD7yZYep-237" value="" style="shape=partialRectangle;connectable=0;fillColor=none;top=0;left=0;bottom=0;right=0;editable=1;overflow=hidden;whiteSpace=wrap;html=1;" parent="Tqe3TVvIQu0EyD7yZYep-236" vertex="1">
          <mxGeometry width="50.949951171875" height="30" as="geometry">
            <mxRectangle width="50.949951171875" height="30" as="alternateBounds" />
          </mxGeometry>
        </mxCell>
        <mxCell id="Tqe3TVvIQu0EyD7yZYep-238" value="rating" style="shape=partialRectangle;connectable=0;fillColor=none;top=0;left=0;bottom=0;right=0;align=left;spacingLeft=6;overflow=hidden;whiteSpace=wrap;html=1;" parent="Tqe3TVvIQu0EyD7yZYep-236" vertex="1">
          <mxGeometry x="50.949951171875" width="129.050048828125" height="30" as="geometry">
            <mxRectangle width="129.050048828125" height="30" as="alternateBounds" />
          </mxGeometry>
        </mxCell>
        <mxCell id="Tqe3TVvIQu0EyD7yZYep-243" value="" style="shape=tableRow;horizontal=0;startSize=0;swimlaneHead=0;swimlaneBody=0;fillColor=none;collapsible=0;dropTarget=0;points=[[0,0.5],[1,0.5]];portConstraint=eastwest;top=0;left=0;right=0;bottom=0;" parent="Tqe3TVvIQu0EyD7yZYep-226" vertex="1">
          <mxGeometry y="178" width="180" height="30" as="geometry" />
        </mxCell>
        <mxCell id="Tqe3TVvIQu0EyD7yZYep-244" value="" style="shape=partialRectangle;connectable=0;fillColor=none;top=0;left=0;bottom=0;right=0;editable=1;overflow=hidden;whiteSpace=wrap;html=1;" parent="Tqe3TVvIQu0EyD7yZYep-243" vertex="1">
          <mxGeometry width="50.949951171875" height="30" as="geometry">
            <mxRectangle width="50.949951171875" height="30" as="alternateBounds" />
          </mxGeometry>
        </mxCell>
        <mxCell id="Tqe3TVvIQu0EyD7yZYep-245" value="comment" style="shape=partialRectangle;connectable=0;fillColor=none;top=0;left=0;bottom=0;right=0;align=left;spacingLeft=6;overflow=hidden;whiteSpace=wrap;html=1;" parent="Tqe3TVvIQu0EyD7yZYep-243" vertex="1">
          <mxGeometry x="50.949951171875" width="129.050048828125" height="30" as="geometry">
            <mxRectangle width="129.050048828125" height="30" as="alternateBounds" />
          </mxGeometry>
        </mxCell>
        <mxCell id="Tqe3TVvIQu0EyD7yZYep-246" value="" style="shape=tableRow;horizontal=0;startSize=0;swimlaneHead=0;swimlaneBody=0;fillColor=none;collapsible=0;dropTarget=0;points=[[0,0.5],[1,0.5]];portConstraint=eastwest;top=0;left=0;right=0;bottom=0;" parent="Tqe3TVvIQu0EyD7yZYep-226" vertex="1">
          <mxGeometry y="208" width="180" height="30" as="geometry" />
        </mxCell>
        <mxCell id="Tqe3TVvIQu0EyD7yZYep-247" value="" style="shape=partialRectangle;connectable=0;fillColor=none;top=0;left=0;bottom=0;right=0;editable=1;overflow=hidden;whiteSpace=wrap;html=1;" parent="Tqe3TVvIQu0EyD7yZYep-246" vertex="1">
          <mxGeometry width="50.949951171875" height="30" as="geometry">
            <mxRectangle width="50.949951171875" height="30" as="alternateBounds" />
          </mxGeometry>
        </mxCell>
        <mxCell id="Tqe3TVvIQu0EyD7yZYep-248" value="feedbackStatus" style="shape=partialRectangle;connectable=0;fillColor=none;top=0;left=0;bottom=0;right=0;align=left;spacingLeft=6;overflow=hidden;whiteSpace=wrap;html=1;" parent="Tqe3TVvIQu0EyD7yZYep-246" vertex="1">
          <mxGeometry x="50.949951171875" width="129.050048828125" height="30" as="geometry">
            <mxRectangle width="129.050048828125" height="30" as="alternateBounds" />
          </mxGeometry>
        </mxCell>
        <mxCell id="Tqe3TVvIQu0EyD7yZYep-242" value="" style="fontSize=12;html=1;endArrow=ERoneToMany;startArrow=ERmandOne;rounded=0;" parent="1" source="Tqe3TVvIQu0EyD7yZYep-24" target="Tqe3TVvIQu0EyD7yZYep-239" edge="1">
          <mxGeometry width="100" height="100" relative="1" as="geometry">
            <mxPoint x="720" y="310" as="sourcePoint" />
            <mxPoint x="820" y="210" as="targetPoint" />
            <Array as="points">
              <mxPoint x="1024" y="78" />
              <mxPoint x="1030" y="507" />
            </Array>
          </mxGeometry>
        </mxCell>
        <mxCell id="Tqe3TVvIQu0EyD7yZYep-249" value="" style="fontSize=12;html=1;endArrow=ERoneToMany;startArrow=ERmandOne;rounded=0;entryX=0;entryY=0.5;entryDx=0;entryDy=0;exitX=1;exitY=0.5;exitDx=0;exitDy=0;" parent="1" source="Tqe3TVvIQu0EyD7yZYep-5" target="Tqe3TVvIQu0EyD7yZYep-233" edge="1">
          <mxGeometry width="100" height="100" relative="1" as="geometry">
            <mxPoint x="464" y="477" as="sourcePoint" />
            <mxPoint x="820" y="410" as="targetPoint" />
            <Array as="points">
              <mxPoint x="580" y="480" />
              <mxPoint x="580" y="572" />
            </Array>
          </mxGeometry>
        </mxCell>
        <mxCell id="AXwlNcnpmfD-kMraT3yB-1" value="Voucher" style="shape=table;startSize=30;container=1;collapsible=1;childLayout=tableLayout;fixedRows=1;rowLines=0;fontStyle=1;align=center;resizeLast=1;html=1;" parent="1" vertex="1">
          <mxGeometry x="290.15" y="770" width="180" height="270" as="geometry" />
        </mxCell>
        <mxCell id="AXwlNcnpmfD-kMraT3yB-2" value="" style="shape=tableRow;horizontal=0;startSize=0;swimlaneHead=0;swimlaneBody=0;fillColor=none;collapsible=0;dropTarget=0;points=[[0,0.5],[1,0.5]];portConstraint=eastwest;top=0;left=0;right=0;bottom=1;" parent="AXwlNcnpmfD-kMraT3yB-1" vertex="1">
          <mxGeometry y="30" width="180" height="30" as="geometry" />
        </mxCell>
        <mxCell id="AXwlNcnpmfD-kMraT3yB-3" value="PK" style="shape=partialRectangle;connectable=0;fillColor=none;top=0;left=0;bottom=0;right=0;fontStyle=1;overflow=hidden;whiteSpace=wrap;html=1;" parent="AXwlNcnpmfD-kMraT3yB-2" vertex="1">
          <mxGeometry width="43.3499755859375" height="30" as="geometry">
            <mxRectangle width="43.3499755859375" height="30" as="alternateBounds" />
          </mxGeometry>
        </mxCell>
        <mxCell id="AXwlNcnpmfD-kMraT3yB-4" value="voucherID" style="shape=partialRectangle;connectable=0;fillColor=none;top=0;left=0;bottom=0;right=0;align=left;spacingLeft=6;fontStyle=5;overflow=hidden;whiteSpace=wrap;html=1;" parent="AXwlNcnpmfD-kMraT3yB-2" vertex="1">
          <mxGeometry x="43.3499755859375" width="136.6500244140625" height="30" as="geometry">
            <mxRectangle width="136.6500244140625" height="30" as="alternateBounds" />
          </mxGeometry>
        </mxCell>
        <mxCell id="AXwlNcnpmfD-kMraT3yB-14" value="" style="shape=tableRow;horizontal=0;startSize=0;swimlaneHead=0;swimlaneBody=0;fillColor=none;collapsible=0;dropTarget=0;points=[[0,0.5],[1,0.5]];portConstraint=eastwest;top=0;left=0;right=0;bottom=1;" parent="AXwlNcnpmfD-kMraT3yB-1" vertex="1">
          <mxGeometry y="60" width="180" height="30" as="geometry" />
        </mxCell>
        <mxCell id="AXwlNcnpmfD-kMraT3yB-15" value="PK,FK" style="shape=partialRectangle;connectable=0;fillColor=none;top=0;left=0;bottom=0;right=0;fontStyle=1;overflow=hidden;whiteSpace=wrap;html=1;" parent="AXwlNcnpmfD-kMraT3yB-14" vertex="1">
          <mxGeometry width="43.3499755859375" height="30" as="geometry">
            <mxRectangle width="43.3499755859375" height="30" as="alternateBounds" />
          </mxGeometry>
        </mxCell>
        <mxCell id="AXwlNcnpmfD-kMraT3yB-16" value="accountID" style="shape=partialRectangle;connectable=0;fillColor=none;top=0;left=0;bottom=0;right=0;align=left;spacingLeft=6;fontStyle=5;overflow=hidden;whiteSpace=wrap;html=1;" parent="AXwlNcnpmfD-kMraT3yB-14" vertex="1">
          <mxGeometry x="43.3499755859375" width="136.6500244140625" height="30" as="geometry">
            <mxRectangle width="136.6500244140625" height="30" as="alternateBounds" />
          </mxGeometry>
        </mxCell>
        <mxCell id="AXwlNcnpmfD-kMraT3yB-5" value="" style="shape=tableRow;horizontal=0;startSize=0;swimlaneHead=0;swimlaneBody=0;fillColor=none;collapsible=0;dropTarget=0;points=[[0,0.5],[1,0.5]];portConstraint=eastwest;top=0;left=0;right=0;bottom=0;" parent="AXwlNcnpmfD-kMraT3yB-1" vertex="1">
          <mxGeometry y="90" width="180" height="30" as="geometry" />
        </mxCell>
        <mxCell id="AXwlNcnpmfD-kMraT3yB-6" value="" style="shape=partialRectangle;connectable=0;fillColor=none;top=0;left=0;bottom=0;right=0;editable=1;overflow=hidden;whiteSpace=wrap;html=1;" parent="AXwlNcnpmfD-kMraT3yB-5" vertex="1">
          <mxGeometry width="43.3499755859375" height="30" as="geometry">
            <mxRectangle width="43.3499755859375" height="30" as="alternateBounds" />
          </mxGeometry>
        </mxCell>
        <mxCell id="AXwlNcnpmfD-kMraT3yB-7" value="voucherName" style="shape=partialRectangle;connectable=0;fillColor=none;top=0;left=0;bottom=0;right=0;align=left;spacingLeft=6;overflow=hidden;whiteSpace=wrap;html=1;" parent="AXwlNcnpmfD-kMraT3yB-5" vertex="1">
          <mxGeometry x="43.3499755859375" width="136.6500244140625" height="30" as="geometry">
            <mxRectangle width="136.6500244140625" height="30" as="alternateBounds" />
          </mxGeometry>
        </mxCell>
        <mxCell id="AXwlNcnpmfD-kMraT3yB-8" value="" style="shape=tableRow;horizontal=0;startSize=0;swimlaneHead=0;swimlaneBody=0;fillColor=none;collapsible=0;dropTarget=0;points=[[0,0.5],[1,0.5]];portConstraint=eastwest;top=0;left=0;right=0;bottom=0;" parent="AXwlNcnpmfD-kMraT3yB-1" vertex="1">
          <mxGeometry y="120" width="180" height="30" as="geometry" />
        </mxCell>
        <mxCell id="AXwlNcnpmfD-kMraT3yB-9" value="" style="shape=partialRectangle;connectable=0;fillColor=none;top=0;left=0;bottom=0;right=0;editable=1;overflow=hidden;whiteSpace=wrap;html=1;" parent="AXwlNcnpmfD-kMraT3yB-8" vertex="1">
          <mxGeometry width="43.3499755859375" height="30" as="geometry">
            <mxRectangle width="43.3499755859375" height="30" as="alternateBounds" />
          </mxGeometry>
        </mxCell>
        <mxCell id="AXwlNcnpmfD-kMraT3yB-10" value="dateStart" style="shape=partialRectangle;connectable=0;fillColor=none;top=0;left=0;bottom=0;right=0;align=left;spacingLeft=6;overflow=hidden;whiteSpace=wrap;html=1;" parent="AXwlNcnpmfD-kMraT3yB-8" vertex="1">
          <mxGeometry x="43.3499755859375" width="136.6500244140625" height="30" as="geometry">
            <mxRectangle width="136.6500244140625" height="30" as="alternateBounds" />
          </mxGeometry>
        </mxCell>
        <mxCell id="AXwlNcnpmfD-kMraT3yB-11" value="" style="shape=tableRow;horizontal=0;startSize=0;swimlaneHead=0;swimlaneBody=0;fillColor=none;collapsible=0;dropTarget=0;points=[[0,0.5],[1,0.5]];portConstraint=eastwest;top=0;left=0;right=0;bottom=0;" parent="AXwlNcnpmfD-kMraT3yB-1" vertex="1">
          <mxGeometry y="150" width="180" height="30" as="geometry" />
        </mxCell>
        <mxCell id="AXwlNcnpmfD-kMraT3yB-12" value="" style="shape=partialRectangle;connectable=0;fillColor=none;top=0;left=0;bottom=0;right=0;editable=1;overflow=hidden;whiteSpace=wrap;html=1;" parent="AXwlNcnpmfD-kMraT3yB-11" vertex="1">
          <mxGeometry width="43.3499755859375" height="30" as="geometry">
            <mxRectangle width="43.3499755859375" height="30" as="alternateBounds" />
          </mxGeometry>
        </mxCell>
        <mxCell id="AXwlNcnpmfD-kMraT3yB-13" value="dateEnd" style="shape=partialRectangle;connectable=0;fillColor=none;top=0;left=0;bottom=0;right=0;align=left;spacingLeft=6;overflow=hidden;whiteSpace=wrap;html=1;" parent="AXwlNcnpmfD-kMraT3yB-11" vertex="1">
          <mxGeometry x="43.3499755859375" width="136.6500244140625" height="30" as="geometry">
            <mxRectangle width="136.6500244140625" height="30" as="alternateBounds" />
          </mxGeometry>
        </mxCell>
        <mxCell id="jpY8jGYzc3JA2plT4WOq-4" value="" style="shape=tableRow;horizontal=0;startSize=0;swimlaneHead=0;swimlaneBody=0;fillColor=none;collapsible=0;dropTarget=0;points=[[0,0.5],[1,0.5]];portConstraint=eastwest;top=0;left=0;right=0;bottom=0;" parent="AXwlNcnpmfD-kMraT3yB-1" vertex="1">
          <mxGeometry y="180" width="180" height="30" as="geometry" />
        </mxCell>
        <mxCell id="jpY8jGYzc3JA2plT4WOq-5" value="" style="shape=partialRectangle;connectable=0;fillColor=none;top=0;left=0;bottom=0;right=0;editable=1;overflow=hidden;whiteSpace=wrap;html=1;" parent="jpY8jGYzc3JA2plT4WOq-4" vertex="1">
          <mxGeometry width="43.3499755859375" height="30" as="geometry">
            <mxRectangle width="43.3499755859375" height="30" as="alternateBounds" />
          </mxGeometry>
        </mxCell>
        <mxCell id="jpY8jGYzc3JA2plT4WOq-6" value="value" style="shape=partialRectangle;connectable=0;fillColor=none;top=0;left=0;bottom=0;right=0;align=left;spacingLeft=6;overflow=hidden;whiteSpace=wrap;html=1;" parent="jpY8jGYzc3JA2plT4WOq-4" vertex="1">
          <mxGeometry x="43.3499755859375" width="136.6500244140625" height="30" as="geometry">
            <mxRectangle width="136.6500244140625" height="30" as="alternateBounds" />
          </mxGeometry>
        </mxCell>
        <mxCell id="jpY8jGYzc3JA2plT4WOq-1" value="" style="shape=tableRow;horizontal=0;startSize=0;swimlaneHead=0;swimlaneBody=0;fillColor=none;collapsible=0;dropTarget=0;points=[[0,0.5],[1,0.5]];portConstraint=eastwest;top=0;left=0;right=0;bottom=0;" parent="AXwlNcnpmfD-kMraT3yB-1" vertex="1">
          <mxGeometry y="210" width="180" height="30" as="geometry" />
        </mxCell>
        <mxCell id="jpY8jGYzc3JA2plT4WOq-2" value="FK" style="shape=partialRectangle;connectable=0;fillColor=none;top=0;left=0;bottom=0;right=0;editable=1;overflow=hidden;whiteSpace=wrap;html=1;" parent="jpY8jGYzc3JA2plT4WOq-1" vertex="1">
          <mxGeometry width="43.3499755859375" height="30" as="geometry">
            <mxRectangle width="43.3499755859375" height="30" as="alternateBounds" />
          </mxGeometry>
        </mxCell>
        <mxCell id="jpY8jGYzc3JA2plT4WOq-3" value="catevouicherID" style="shape=partialRectangle;connectable=0;fillColor=none;top=0;left=0;bottom=0;right=0;align=left;spacingLeft=6;overflow=hidden;whiteSpace=wrap;html=1;" parent="jpY8jGYzc3JA2plT4WOq-1" vertex="1">
          <mxGeometry x="43.3499755859375" width="136.6500244140625" height="30" as="geometry">
            <mxRectangle width="136.6500244140625" height="30" as="alternateBounds" />
          </mxGeometry>
        </mxCell>
        <mxCell id="AQBT0DvoFc7ZnVPQrZ8e-1" value="" style="shape=tableRow;horizontal=0;startSize=0;swimlaneHead=0;swimlaneBody=0;fillColor=none;collapsible=0;dropTarget=0;points=[[0,0.5],[1,0.5]];portConstraint=eastwest;top=0;left=0;right=0;bottom=0;" vertex="1" parent="AXwlNcnpmfD-kMraT3yB-1">
          <mxGeometry y="240" width="180" height="30" as="geometry" />
        </mxCell>
        <mxCell id="AQBT0DvoFc7ZnVPQrZ8e-2" value="" style="shape=partialRectangle;connectable=0;fillColor=none;top=0;left=0;bottom=0;right=0;editable=1;overflow=hidden;whiteSpace=wrap;html=1;" vertex="1" parent="AQBT0DvoFc7ZnVPQrZ8e-1">
          <mxGeometry width="43.3499755859375" height="30" as="geometry">
            <mxRectangle width="43.3499755859375" height="30" as="alternateBounds" />
          </mxGeometry>
        </mxCell>
        <mxCell id="AQBT0DvoFc7ZnVPQrZ8e-3" value="voucherStatus" style="shape=partialRectangle;connectable=0;fillColor=none;top=0;left=0;bottom=0;right=0;align=left;spacingLeft=6;overflow=hidden;whiteSpace=wrap;html=1;" vertex="1" parent="AQBT0DvoFc7ZnVPQrZ8e-1">
          <mxGeometry x="43.3499755859375" width="136.6500244140625" height="30" as="geometry">
            <mxRectangle width="136.6500244140625" height="30" as="alternateBounds" />
          </mxGeometry>
        </mxCell>
        <mxCell id="AXwlNcnpmfD-kMraT3yB-17" value="" style="fontSize=12;html=1;endArrow=ERoneToMany;startArrow=ERmandOne;rounded=0;entryX=0.5;entryY=0;entryDx=0;entryDy=0;" parent="1" target="AXwlNcnpmfD-kMraT3yB-1" edge="1">
          <mxGeometry width="100" height="100" relative="1" as="geometry">
            <mxPoint x="380" y="715" as="sourcePoint" />
            <mxPoint x="463.79" y="815.19" as="targetPoint" />
          </mxGeometry>
        </mxCell>
        <mxCell id="cr6GrJZ4LpcZBZLohAbK-20" style="edgeStyle=orthogonalEdgeStyle;rounded=0;orthogonalLoop=1;jettySize=auto;html=1;exitX=0.5;exitY=0;exitDx=0;exitDy=0;startArrow=ERoneToMany;startFill=0;endArrow=ERmandOne;endFill=0;" parent="1" source="cr6GrJZ4LpcZBZLohAbK-3" target="Tqe3TVvIQu0EyD7yZYep-54" edge="1">
          <mxGeometry relative="1" as="geometry">
            <mxPoint x="687" y="590" as="sourcePoint" />
          </mxGeometry>
        </mxCell>
        <mxCell id="cr6GrJZ4LpcZBZLohAbK-3" value="UpdateProduct" style="shape=table;startSize=30;container=1;collapsible=1;childLayout=tableLayout;fixedRows=1;rowLines=0;fontStyle=1;align=center;resizeLast=1;html=1;" parent="1" vertex="1">
          <mxGeometry x="648" y="586" width="180" height="120" as="geometry" />
        </mxCell>
        <mxCell id="cr6GrJZ4LpcZBZLohAbK-4" value="" style="shape=tableRow;horizontal=0;startSize=0;swimlaneHead=0;swimlaneBody=0;fillColor=none;collapsible=0;dropTarget=0;points=[[0,0.5],[1,0.5]];portConstraint=eastwest;top=0;left=0;right=0;bottom=1;" parent="cr6GrJZ4LpcZBZLohAbK-3" vertex="1">
          <mxGeometry y="30" width="180" height="30" as="geometry" />
        </mxCell>
        <mxCell id="cr6GrJZ4LpcZBZLohAbK-5" value="PK,FK" style="shape=partialRectangle;connectable=0;fillColor=none;top=0;left=0;bottom=0;right=0;fontStyle=1;overflow=hidden;whiteSpace=wrap;html=1;" parent="cr6GrJZ4LpcZBZLohAbK-4" vertex="1">
          <mxGeometry width="42.95001220703125" height="30" as="geometry">
            <mxRectangle width="42.95001220703125" height="30" as="alternateBounds" />
          </mxGeometry>
        </mxCell>
        <mxCell id="cr6GrJZ4LpcZBZLohAbK-6" value="updateID" style="shape=partialRectangle;connectable=0;fillColor=none;top=0;left=0;bottom=0;right=0;align=left;spacingLeft=6;fontStyle=5;overflow=hidden;whiteSpace=wrap;html=1;" parent="cr6GrJZ4LpcZBZLohAbK-4" vertex="1">
          <mxGeometry x="42.95001220703125" width="137.04998779296875" height="30" as="geometry">
            <mxRectangle width="137.04998779296875" height="30" as="alternateBounds" />
          </mxGeometry>
        </mxCell>
        <mxCell id="cr6GrJZ4LpcZBZLohAbK-7" value="" style="shape=tableRow;horizontal=0;startSize=0;swimlaneHead=0;swimlaneBody=0;fillColor=none;collapsible=0;dropTarget=0;points=[[0,0.5],[1,0.5]];portConstraint=eastwest;top=0;left=0;right=0;bottom=0;" parent="cr6GrJZ4LpcZBZLohAbK-3" vertex="1">
          <mxGeometry y="60" width="180" height="30" as="geometry" />
        </mxCell>
        <mxCell id="cr6GrJZ4LpcZBZLohAbK-8" value="" style="shape=partialRectangle;connectable=0;fillColor=none;top=0;left=0;bottom=0;right=0;editable=1;overflow=hidden;whiteSpace=wrap;html=1;" parent="cr6GrJZ4LpcZBZLohAbK-7" vertex="1">
          <mxGeometry width="42.95001220703125" height="30" as="geometry">
            <mxRectangle width="42.95001220703125" height="30" as="alternateBounds" />
          </mxGeometry>
        </mxCell>
        <mxCell id="cr6GrJZ4LpcZBZLohAbK-9" value="timeUpdate" style="shape=partialRectangle;connectable=0;fillColor=none;top=0;left=0;bottom=0;right=0;align=left;spacingLeft=6;overflow=hidden;whiteSpace=wrap;html=1;" parent="cr6GrJZ4LpcZBZLohAbK-7" vertex="1">
          <mxGeometry x="42.95001220703125" width="137.04998779296875" height="30" as="geometry">
            <mxRectangle width="137.04998779296875" height="30" as="alternateBounds" />
          </mxGeometry>
        </mxCell>
        <mxCell id="cr6GrJZ4LpcZBZLohAbK-10" value="" style="shape=tableRow;horizontal=0;startSize=0;swimlaneHead=0;swimlaneBody=0;fillColor=none;collapsible=0;dropTarget=0;points=[[0,0.5],[1,0.5]];portConstraint=eastwest;top=0;left=0;right=0;bottom=0;" parent="cr6GrJZ4LpcZBZLohAbK-3" vertex="1">
          <mxGeometry y="90" width="180" height="30" as="geometry" />
        </mxCell>
        <mxCell id="cr6GrJZ4LpcZBZLohAbK-11" value="FK" style="shape=partialRectangle;connectable=0;fillColor=none;top=0;left=0;bottom=0;right=0;editable=1;overflow=hidden;whiteSpace=wrap;html=1;" parent="cr6GrJZ4LpcZBZLohAbK-10" vertex="1">
          <mxGeometry width="42.95001220703125" height="30" as="geometry">
            <mxRectangle width="42.95001220703125" height="30" as="alternateBounds" />
          </mxGeometry>
        </mxCell>
        <mxCell id="cr6GrJZ4LpcZBZLohAbK-12" value="accountID" style="shape=partialRectangle;connectable=0;fillColor=none;top=0;left=0;bottom=0;right=0;align=left;spacingLeft=6;overflow=hidden;whiteSpace=wrap;html=1;" parent="cr6GrJZ4LpcZBZLohAbK-10" vertex="1">
          <mxGeometry x="42.95001220703125" width="137.04998779296875" height="30" as="geometry">
            <mxRectangle width="137.04998779296875" height="30" as="alternateBounds" />
          </mxGeometry>
        </mxCell>
        <mxCell id="cr6GrJZ4LpcZBZLohAbK-19" value="" style="fontSize=12;html=1;endArrow=ERoneToMany;startArrow=ERmandOne;rounded=0;" parent="1" source="Tqe3TVvIQu0EyD7yZYep-2" target="cr6GrJZ4LpcZBZLohAbK-10" edge="1">
          <mxGeometry width="100" height="100" relative="1" as="geometry">
            <mxPoint x="838" y="563" as="sourcePoint" />
            <mxPoint x="938" y="463" as="targetPoint" />
            <Array as="points">
              <mxPoint x="613" y="469" />
              <mxPoint x="606" y="694" />
            </Array>
          </mxGeometry>
        </mxCell>
        <mxCell id="iV1D0tlbTL7U8QCcENui-1" value="BookingRequest" style="shape=table;startSize=30;container=1;collapsible=1;childLayout=tableLayout;fixedRows=1;rowLines=0;fontStyle=1;align=center;resizeLast=1;html=1;" parent="1" vertex="1">
          <mxGeometry x="59" y="421" width="178" height="390" as="geometry" />
        </mxCell>
        <mxCell id="iV1D0tlbTL7U8QCcENui-2" value="" style="shape=tableRow;horizontal=0;startSize=0;swimlaneHead=0;swimlaneBody=0;fillColor=none;collapsible=0;dropTarget=0;points=[[0,0.5],[1,0.5]];portConstraint=eastwest;top=0;left=0;right=0;bottom=1;" parent="iV1D0tlbTL7U8QCcENui-1" vertex="1">
          <mxGeometry y="30" width="178" height="30" as="geometry" />
        </mxCell>
        <mxCell id="iV1D0tlbTL7U8QCcENui-3" value="PK" style="shape=partialRectangle;connectable=0;fillColor=none;top=0;left=0;bottom=0;right=0;fontStyle=1;overflow=hidden;whiteSpace=wrap;html=1;" parent="iV1D0tlbTL7U8QCcENui-2" vertex="1">
          <mxGeometry width="30" height="30" as="geometry">
            <mxRectangle width="30" height="30" as="alternateBounds" />
          </mxGeometry>
        </mxCell>
        <mxCell id="iV1D0tlbTL7U8QCcENui-4" value="bookingID" style="shape=partialRectangle;connectable=0;fillColor=none;top=0;left=0;bottom=0;right=0;align=left;spacingLeft=6;fontStyle=5;overflow=hidden;whiteSpace=wrap;html=1;" parent="iV1D0tlbTL7U8QCcENui-2" vertex="1">
          <mxGeometry x="30" width="148" height="30" as="geometry">
            <mxRectangle width="148" height="30" as="alternateBounds" />
          </mxGeometry>
        </mxCell>
        <mxCell id="iV1D0tlbTL7U8QCcENui-5" value="" style="shape=tableRow;horizontal=0;startSize=0;swimlaneHead=0;swimlaneBody=0;fillColor=none;collapsible=0;dropTarget=0;points=[[0,0.5],[1,0.5]];portConstraint=eastwest;top=0;left=0;right=0;bottom=0;" parent="iV1D0tlbTL7U8QCcENui-1" vertex="1">
          <mxGeometry y="60" width="178" height="30" as="geometry" />
        </mxCell>
        <mxCell id="iV1D0tlbTL7U8QCcENui-6" value="FK" style="shape=partialRectangle;connectable=0;fillColor=none;top=0;left=0;bottom=0;right=0;editable=1;overflow=hidden;whiteSpace=wrap;html=1;" parent="iV1D0tlbTL7U8QCcENui-5" vertex="1">
          <mxGeometry width="30" height="30" as="geometry">
            <mxRectangle width="30" height="30" as="alternateBounds" />
          </mxGeometry>
        </mxCell>
        <mxCell id="iV1D0tlbTL7U8QCcENui-7" value="accountID" style="shape=partialRectangle;connectable=0;fillColor=none;top=0;left=0;bottom=0;right=0;align=left;spacingLeft=6;overflow=hidden;whiteSpace=wrap;html=1;" parent="iV1D0tlbTL7U8QCcENui-5" vertex="1">
          <mxGeometry x="30" width="148" height="30" as="geometry">
            <mxRectangle width="148" height="30" as="alternateBounds" />
          </mxGeometry>
        </mxCell>
        <mxCell id="iV1D0tlbTL7U8QCcENui-8" value="" style="shape=tableRow;horizontal=0;startSize=0;swimlaneHead=0;swimlaneBody=0;fillColor=none;collapsible=0;dropTarget=0;points=[[0,0.5],[1,0.5]];portConstraint=eastwest;top=0;left=0;right=0;bottom=0;" parent="iV1D0tlbTL7U8QCcENui-1" vertex="1">
          <mxGeometry y="90" width="178" height="30" as="geometry" />
        </mxCell>
        <mxCell id="iV1D0tlbTL7U8QCcENui-9" value="" style="shape=partialRectangle;connectable=0;fillColor=none;top=0;left=0;bottom=0;right=0;editable=1;overflow=hidden;whiteSpace=wrap;html=1;" parent="iV1D0tlbTL7U8QCcENui-8" vertex="1">
          <mxGeometry width="30" height="30" as="geometry">
            <mxRectangle width="30" height="30" as="alternateBounds" />
          </mxGeometry>
        </mxCell>
        <mxCell id="iV1D0tlbTL7U8QCcENui-10" value="birdType" style="shape=partialRectangle;connectable=0;fillColor=none;top=0;left=0;bottom=0;right=0;align=left;spacingLeft=6;overflow=hidden;whiteSpace=wrap;html=1;" parent="iV1D0tlbTL7U8QCcENui-8" vertex="1">
          <mxGeometry x="30" width="148" height="30" as="geometry">
            <mxRectangle width="148" height="30" as="alternateBounds" />
          </mxGeometry>
        </mxCell>
        <mxCell id="iV1D0tlbTL7U8QCcENui-33" value="" style="shape=tableRow;horizontal=0;startSize=0;swimlaneHead=0;swimlaneBody=0;fillColor=none;collapsible=0;dropTarget=0;points=[[0,0.5],[1,0.5]];portConstraint=eastwest;top=0;left=0;right=0;bottom=0;" parent="iV1D0tlbTL7U8QCcENui-1" vertex="1">
          <mxGeometry y="120" width="178" height="30" as="geometry" />
        </mxCell>
        <mxCell id="iV1D0tlbTL7U8QCcENui-34" value="" style="shape=partialRectangle;connectable=0;fillColor=none;top=0;left=0;bottom=0;right=0;editable=1;overflow=hidden;whiteSpace=wrap;html=1;" parent="iV1D0tlbTL7U8QCcENui-33" vertex="1">
          <mxGeometry width="30" height="30" as="geometry">
            <mxRectangle width="30" height="30" as="alternateBounds" />
          </mxGeometry>
        </mxCell>
        <mxCell id="iV1D0tlbTL7U8QCcENui-35" value="color" style="shape=partialRectangle;connectable=0;fillColor=none;top=0;left=0;bottom=0;right=0;align=left;spacingLeft=6;overflow=hidden;whiteSpace=wrap;html=1;" parent="iV1D0tlbTL7U8QCcENui-33" vertex="1">
          <mxGeometry x="30" width="148" height="30" as="geometry">
            <mxRectangle width="148" height="30" as="alternateBounds" />
          </mxGeometry>
        </mxCell>
        <mxCell id="C7X9kLaD2-eQaJjgU1ZF-7" value="" style="shape=tableRow;horizontal=0;startSize=0;swimlaneHead=0;swimlaneBody=0;fillColor=none;collapsible=0;dropTarget=0;points=[[0,0.5],[1,0.5]];portConstraint=eastwest;top=0;left=0;right=0;bottom=0;" parent="iV1D0tlbTL7U8QCcENui-1" vertex="1">
          <mxGeometry y="150" width="178" height="30" as="geometry" />
        </mxCell>
        <mxCell id="C7X9kLaD2-eQaJjgU1ZF-8" value="" style="shape=partialRectangle;connectable=0;fillColor=none;top=0;left=0;bottom=0;right=0;editable=1;overflow=hidden;whiteSpace=wrap;html=1;" parent="C7X9kLaD2-eQaJjgU1ZF-7" vertex="1">
          <mxGeometry width="30" height="30" as="geometry">
            <mxRectangle width="30" height="30" as="alternateBounds" />
          </mxGeometry>
        </mxCell>
        <mxCell id="C7X9kLaD2-eQaJjgU1ZF-9" value="size" style="shape=partialRectangle;connectable=0;fillColor=none;top=0;left=0;bottom=0;right=0;align=left;spacingLeft=6;overflow=hidden;whiteSpace=wrap;html=1;" parent="C7X9kLaD2-eQaJjgU1ZF-7" vertex="1">
          <mxGeometry x="30" width="148" height="30" as="geometry">
            <mxRectangle width="148" height="30" as="alternateBounds" />
          </mxGeometry>
        </mxCell>
        <mxCell id="iV1D0tlbTL7U8QCcENui-36" value="" style="shape=tableRow;horizontal=0;startSize=0;swimlaneHead=0;swimlaneBody=0;fillColor=none;collapsible=0;dropTarget=0;points=[[0,0.5],[1,0.5]];portConstraint=eastwest;top=0;left=0;right=0;bottom=0;" parent="iV1D0tlbTL7U8QCcENui-1" vertex="1">
          <mxGeometry y="180" width="178" height="30" as="geometry" />
        </mxCell>
        <mxCell id="iV1D0tlbTL7U8QCcENui-37" value="FK" style="shape=partialRectangle;connectable=0;fillColor=none;top=0;left=0;bottom=0;right=0;editable=1;overflow=hidden;whiteSpace=wrap;html=1;" parent="iV1D0tlbTL7U8QCcENui-36" vertex="1">
          <mxGeometry width="30" height="30" as="geometry">
            <mxRectangle width="30" height="30" as="alternateBounds" />
          </mxGeometry>
        </mxCell>
        <mxCell id="iV1D0tlbTL7U8QCcENui-38" value="materialID" style="shape=partialRectangle;connectable=0;fillColor=none;top=0;left=0;bottom=0;right=0;align=left;spacingLeft=6;overflow=hidden;whiteSpace=wrap;html=1;" parent="iV1D0tlbTL7U8QCcENui-36" vertex="1">
          <mxGeometry x="30" width="148" height="30" as="geometry">
            <mxRectangle width="148" height="30" as="alternateBounds" />
          </mxGeometry>
        </mxCell>
        <mxCell id="1OJDAdK4yA9mYnTKJvj9-22" value="" style="shape=tableRow;horizontal=0;startSize=0;swimlaneHead=0;swimlaneBody=0;fillColor=none;collapsible=0;dropTarget=0;points=[[0,0.5],[1,0.5]];portConstraint=eastwest;top=0;left=0;right=0;bottom=0;" parent="iV1D0tlbTL7U8QCcENui-1" vertex="1">
          <mxGeometry y="210" width="178" height="30" as="geometry" />
        </mxCell>
        <mxCell id="1OJDAdK4yA9mYnTKJvj9-23" value="" style="shape=partialRectangle;connectable=0;fillColor=none;top=0;left=0;bottom=0;right=0;editable=1;overflow=hidden;whiteSpace=wrap;html=1;" parent="1OJDAdK4yA9mYnTKJvj9-22" vertex="1">
          <mxGeometry width="30" height="30" as="geometry">
            <mxRectangle width="30" height="30" as="alternateBounds" />
          </mxGeometry>
        </mxCell>
        <mxCell id="1OJDAdK4yA9mYnTKJvj9-24" value="image" style="shape=partialRectangle;connectable=0;fillColor=none;top=0;left=0;bottom=0;right=0;align=left;spacingLeft=6;overflow=hidden;whiteSpace=wrap;html=1;" parent="1OJDAdK4yA9mYnTKJvj9-22" vertex="1">
          <mxGeometry x="30" width="148" height="30" as="geometry">
            <mxRectangle width="148" height="30" as="alternateBounds" />
          </mxGeometry>
        </mxCell>
        <mxCell id="iV1D0tlbTL7U8QCcENui-39" value="" style="shape=tableRow;horizontal=0;startSize=0;swimlaneHead=0;swimlaneBody=0;fillColor=none;collapsible=0;dropTarget=0;points=[[0,0.5],[1,0.5]];portConstraint=eastwest;top=0;left=0;right=0;bottom=0;" parent="iV1D0tlbTL7U8QCcENui-1" vertex="1">
          <mxGeometry y="240" width="178" height="30" as="geometry" />
        </mxCell>
        <mxCell id="iV1D0tlbTL7U8QCcENui-40" value="" style="shape=partialRectangle;connectable=0;fillColor=none;top=0;left=0;bottom=0;right=0;editable=1;overflow=hidden;whiteSpace=wrap;html=1;" parent="iV1D0tlbTL7U8QCcENui-39" vertex="1">
          <mxGeometry width="30" height="30" as="geometry">
            <mxRectangle width="30" height="30" as="alternateBounds" />
          </mxGeometry>
        </mxCell>
        <mxCell id="iV1D0tlbTL7U8QCcENui-41" value="quantity" style="shape=partialRectangle;connectable=0;fillColor=none;top=0;left=0;bottom=0;right=0;align=left;spacingLeft=6;overflow=hidden;whiteSpace=wrap;html=1;" parent="iV1D0tlbTL7U8QCcENui-39" vertex="1">
          <mxGeometry x="30" width="148" height="30" as="geometry">
            <mxRectangle width="148" height="30" as="alternateBounds" />
          </mxGeometry>
        </mxCell>
        <mxCell id="iV1D0tlbTL7U8QCcENui-11" value="" style="shape=tableRow;horizontal=0;startSize=0;swimlaneHead=0;swimlaneBody=0;fillColor=none;collapsible=0;dropTarget=0;points=[[0,0.5],[1,0.5]];portConstraint=eastwest;top=0;left=0;right=0;bottom=0;" parent="iV1D0tlbTL7U8QCcENui-1" vertex="1">
          <mxGeometry y="270" width="178" height="30" as="geometry" />
        </mxCell>
        <mxCell id="iV1D0tlbTL7U8QCcENui-12" value="" style="shape=partialRectangle;connectable=0;fillColor=none;top=0;left=0;bottom=0;right=0;editable=1;overflow=hidden;whiteSpace=wrap;html=1;" parent="iV1D0tlbTL7U8QCcENui-11" vertex="1">
          <mxGeometry width="30" height="30" as="geometry">
            <mxRectangle width="30" height="30" as="alternateBounds" />
          </mxGeometry>
        </mxCell>
        <mxCell id="iV1D0tlbTL7U8QCcENui-13" value="status" style="shape=partialRectangle;connectable=0;fillColor=none;top=0;left=0;bottom=0;right=0;align=left;spacingLeft=6;overflow=hidden;whiteSpace=wrap;html=1;" parent="iV1D0tlbTL7U8QCcENui-11" vertex="1">
          <mxGeometry x="30" width="148" height="30" as="geometry">
            <mxRectangle width="148" height="30" as="alternateBounds" />
          </mxGeometry>
        </mxCell>
        <mxCell id="1OJDAdK4yA9mYnTKJvj9-25" value="" style="shape=tableRow;horizontal=0;startSize=0;swimlaneHead=0;swimlaneBody=0;fillColor=none;collapsible=0;dropTarget=0;points=[[0,0.5],[1,0.5]];portConstraint=eastwest;top=0;left=0;right=0;bottom=0;" parent="iV1D0tlbTL7U8QCcENui-1" vertex="1">
          <mxGeometry y="300" width="178" height="30" as="geometry" />
        </mxCell>
        <mxCell id="1OJDAdK4yA9mYnTKJvj9-26" value="" style="shape=partialRectangle;connectable=0;fillColor=none;top=0;left=0;bottom=0;right=0;editable=1;overflow=hidden;whiteSpace=wrap;html=1;" parent="1OJDAdK4yA9mYnTKJvj9-25" vertex="1">
          <mxGeometry width="30" height="30" as="geometry">
            <mxRectangle width="30" height="30" as="alternateBounds" />
          </mxGeometry>
        </mxCell>
        <mxCell id="1OJDAdK4yA9mYnTKJvj9-27" value="subtotal" style="shape=partialRectangle;connectable=0;fillColor=none;top=0;left=0;bottom=0;right=0;align=left;spacingLeft=6;overflow=hidden;whiteSpace=wrap;html=1;" parent="1OJDAdK4yA9mYnTKJvj9-25" vertex="1">
          <mxGeometry x="30" width="148" height="30" as="geometry">
            <mxRectangle width="148" height="30" as="alternateBounds" />
          </mxGeometry>
        </mxCell>
        <mxCell id="iV1D0tlbTL7U8QCcENui-42" value="" style="shape=tableRow;horizontal=0;startSize=0;swimlaneHead=0;swimlaneBody=0;fillColor=none;collapsible=0;dropTarget=0;points=[[0,0.5],[1,0.5]];portConstraint=eastwest;top=0;left=0;right=0;bottom=0;" parent="iV1D0tlbTL7U8QCcENui-1" vertex="1">
          <mxGeometry y="330" width="178" height="30" as="geometry" />
        </mxCell>
        <mxCell id="iV1D0tlbTL7U8QCcENui-43" value="" style="shape=partialRectangle;connectable=0;fillColor=none;top=0;left=0;bottom=0;right=0;editable=1;overflow=hidden;whiteSpace=wrap;html=1;" parent="iV1D0tlbTL7U8QCcENui-42" vertex="1">
          <mxGeometry width="30" height="30" as="geometry">
            <mxRectangle width="30" height="30" as="alternateBounds" />
          </mxGeometry>
        </mxCell>
        <mxCell id="iV1D0tlbTL7U8QCcENui-44" value="total" style="shape=partialRectangle;connectable=0;fillColor=none;top=0;left=0;bottom=0;right=0;align=left;spacingLeft=6;overflow=hidden;whiteSpace=wrap;html=1;" parent="iV1D0tlbTL7U8QCcENui-42" vertex="1">
          <mxGeometry x="30" width="148" height="30" as="geometry">
            <mxRectangle width="148" height="30" as="alternateBounds" />
          </mxGeometry>
        </mxCell>
        <mxCell id="1OJDAdK4yA9mYnTKJvj9-19" value="" style="shape=tableRow;horizontal=0;startSize=0;swimlaneHead=0;swimlaneBody=0;fillColor=none;collapsible=0;dropTarget=0;points=[[0,0.5],[1,0.5]];portConstraint=eastwest;top=0;left=0;right=0;bottom=0;" parent="iV1D0tlbTL7U8QCcENui-1" vertex="1">
          <mxGeometry y="360" width="178" height="30" as="geometry" />
        </mxCell>
        <mxCell id="1OJDAdK4yA9mYnTKJvj9-20" value="" style="shape=partialRectangle;connectable=0;fillColor=none;top=0;left=0;bottom=0;right=0;editable=1;overflow=hidden;whiteSpace=wrap;html=1;" parent="1OJDAdK4yA9mYnTKJvj9-19" vertex="1">
          <mxGeometry width="30" height="30" as="geometry">
            <mxRectangle width="30" height="30" as="alternateBounds" />
          </mxGeometry>
        </mxCell>
        <mxCell id="1OJDAdK4yA9mYnTKJvj9-21" value="createTime" style="shape=partialRectangle;connectable=0;fillColor=none;top=0;left=0;bottom=0;right=0;align=left;spacingLeft=6;overflow=hidden;whiteSpace=wrap;html=1;" parent="1OJDAdK4yA9mYnTKJvj9-19" vertex="1">
          <mxGeometry x="30" width="148" height="30" as="geometry">
            <mxRectangle width="148" height="30" as="alternateBounds" />
          </mxGeometry>
        </mxCell>
        <mxCell id="iV1D0tlbTL7U8QCcENui-45" value="" style="fontSize=12;html=1;endArrow=ERoneToMany;startArrow=ERmandOne;rounded=0;" parent="1" source="Tqe3TVvIQu0EyD7yZYep-2" target="iV1D0tlbTL7U8QCcENui-5" edge="1">
          <mxGeometry width="100" height="100" relative="1" as="geometry">
            <mxPoint x="306" y="424" as="sourcePoint" />
            <mxPoint x="406" y="324" as="targetPoint" />
            <Array as="points">
              <mxPoint x="264" y="468" />
              <mxPoint x="264" y="493" />
            </Array>
          </mxGeometry>
        </mxCell>
        <mxCell id="iV1D0tlbTL7U8QCcENui-49" value="" style="fontSize=12;html=1;endArrow=ERmandOne;startArrow=ERmandOne;rounded=0;" parent="1" source="iV1D0tlbTL7U8QCcENui-2" target="ALfpEoM0DnNTNpAniod4-1" edge="1">
          <mxGeometry width="100" height="100" relative="1" as="geometry">
            <mxPoint x="306" y="487" as="sourcePoint" />
            <mxPoint x="406" y="387" as="targetPoint" />
            <Array as="points">
              <mxPoint x="-107" y="466" />
              <mxPoint x="-107" y="303" />
            </Array>
          </mxGeometry>
        </mxCell>
        <mxCell id="1OJDAdK4yA9mYnTKJvj9-1" value="Material" style="shape=table;startSize=29;container=1;collapsible=1;childLayout=tableLayout;fixedRows=1;rowLines=0;fontStyle=1;align=center;resizeLast=1;html=1;" parent="1" vertex="1">
          <mxGeometry x="-197" y="560" width="180" height="112" as="geometry" />
        </mxCell>
        <mxCell id="1OJDAdK4yA9mYnTKJvj9-2" value="" style="shape=tableRow;horizontal=0;startSize=0;swimlaneHead=0;swimlaneBody=0;fillColor=none;collapsible=0;dropTarget=0;points=[[0,0.5],[1,0.5]];portConstraint=eastwest;top=0;left=0;right=0;bottom=1;" parent="1OJDAdK4yA9mYnTKJvj9-1" vertex="1">
          <mxGeometry y="29" width="180" height="30" as="geometry" />
        </mxCell>
        <mxCell id="1OJDAdK4yA9mYnTKJvj9-3" value="PK" style="shape=partialRectangle;connectable=0;fillColor=none;top=0;left=0;bottom=0;right=0;fontStyle=1;overflow=hidden;whiteSpace=wrap;html=1;" parent="1OJDAdK4yA9mYnTKJvj9-2" vertex="1">
          <mxGeometry width="30" height="30" as="geometry">
            <mxRectangle width="30" height="30" as="alternateBounds" />
          </mxGeometry>
        </mxCell>
        <mxCell id="1OJDAdK4yA9mYnTKJvj9-4" value="materialID" style="shape=partialRectangle;connectable=0;fillColor=none;top=0;left=0;bottom=0;right=0;align=left;spacingLeft=6;fontStyle=5;overflow=hidden;whiteSpace=wrap;html=1;" parent="1OJDAdK4yA9mYnTKJvj9-2" vertex="1">
          <mxGeometry x="30" width="150" height="30" as="geometry">
            <mxRectangle width="150" height="30" as="alternateBounds" />
          </mxGeometry>
        </mxCell>
        <mxCell id="1OJDAdK4yA9mYnTKJvj9-5" value="" style="shape=tableRow;horizontal=0;startSize=0;swimlaneHead=0;swimlaneBody=0;fillColor=none;collapsible=0;dropTarget=0;points=[[0,0.5],[1,0.5]];portConstraint=eastwest;top=0;left=0;right=0;bottom=0;" parent="1OJDAdK4yA9mYnTKJvj9-1" vertex="1">
          <mxGeometry y="59" width="180" height="23" as="geometry" />
        </mxCell>
        <mxCell id="1OJDAdK4yA9mYnTKJvj9-6" value="" style="shape=partialRectangle;connectable=0;fillColor=none;top=0;left=0;bottom=0;right=0;editable=1;overflow=hidden;whiteSpace=wrap;html=1;" parent="1OJDAdK4yA9mYnTKJvj9-5" vertex="1">
          <mxGeometry width="30" height="23" as="geometry">
            <mxRectangle width="30" height="23" as="alternateBounds" />
          </mxGeometry>
        </mxCell>
        <mxCell id="1OJDAdK4yA9mYnTKJvj9-7" value="name" style="shape=partialRectangle;connectable=0;fillColor=none;top=0;left=0;bottom=0;right=0;align=left;spacingLeft=6;overflow=hidden;whiteSpace=wrap;html=1;" parent="1OJDAdK4yA9mYnTKJvj9-5" vertex="1">
          <mxGeometry x="30" width="150" height="23" as="geometry">
            <mxRectangle width="150" height="23" as="alternateBounds" />
          </mxGeometry>
        </mxCell>
        <mxCell id="1OJDAdK4yA9mYnTKJvj9-8" value="" style="shape=tableRow;horizontal=0;startSize=0;swimlaneHead=0;swimlaneBody=0;fillColor=none;collapsible=0;dropTarget=0;points=[[0,0.5],[1,0.5]];portConstraint=eastwest;top=0;left=0;right=0;bottom=0;" parent="1OJDAdK4yA9mYnTKJvj9-1" vertex="1">
          <mxGeometry y="82" width="180" height="30" as="geometry" />
        </mxCell>
        <mxCell id="1OJDAdK4yA9mYnTKJvj9-9" value="" style="shape=partialRectangle;connectable=0;fillColor=none;top=0;left=0;bottom=0;right=0;editable=1;overflow=hidden;whiteSpace=wrap;html=1;" parent="1OJDAdK4yA9mYnTKJvj9-8" vertex="1">
          <mxGeometry width="30" height="30" as="geometry">
            <mxRectangle width="30" height="30" as="alternateBounds" />
          </mxGeometry>
        </mxCell>
        <mxCell id="1OJDAdK4yA9mYnTKJvj9-10" value="price" style="shape=partialRectangle;connectable=0;fillColor=none;top=0;left=0;bottom=0;right=0;align=left;spacingLeft=6;overflow=hidden;whiteSpace=wrap;html=1;" parent="1OJDAdK4yA9mYnTKJvj9-8" vertex="1">
          <mxGeometry x="30" width="150" height="30" as="geometry">
            <mxRectangle width="150" height="30" as="alternateBounds" />
          </mxGeometry>
        </mxCell>
        <mxCell id="1OJDAdK4yA9mYnTKJvj9-14" value="" style="edgeStyle=entityRelationEdgeStyle;fontSize=12;html=1;endArrow=ERmandOne;startArrow=ERmandOne;rounded=0;" parent="1" source="1OJDAdK4yA9mYnTKJvj9-2" target="iV1D0tlbTL7U8QCcENui-36" edge="1">
          <mxGeometry width="100" height="100" relative="1" as="geometry">
            <mxPoint x="-228" y="772" as="sourcePoint" />
            <mxPoint x="-128" y="672" as="targetPoint" />
          </mxGeometry>
        </mxCell>
        <mxCell id="dFildIa3CV3cTvu0gfpd-20" style="edgeStyle=orthogonalEdgeStyle;rounded=0;orthogonalLoop=1;jettySize=auto;html=1;exitX=0.25;exitY=0;exitDx=0;exitDy=0;entryX=0.994;entryY=1.098;entryDx=0;entryDy=0;entryPerimeter=0;startArrow=ERoneToMany;startFill=0;endArrow=ERmandOne;endFill=0;" parent="1" source="dFildIa3CV3cTvu0gfpd-1" target="Tqe3TVvIQu0EyD7yZYep-20" edge="1">
          <mxGeometry relative="1" as="geometry" />
        </mxCell>
        <mxCell id="dFildIa3CV3cTvu0gfpd-1" value="Blog" style="shape=table;startSize=30;container=1;collapsible=1;childLayout=tableLayout;fixedRows=1;rowLines=0;fontStyle=1;align=center;resizeLast=1;html=1;" parent="1" vertex="1">
          <mxGeometry x="537" y="746" width="180" height="210" as="geometry" />
        </mxCell>
        <mxCell id="dFildIa3CV3cTvu0gfpd-2" value="" style="shape=tableRow;horizontal=0;startSize=0;swimlaneHead=0;swimlaneBody=0;fillColor=none;collapsible=0;dropTarget=0;points=[[0,0.5],[1,0.5]];portConstraint=eastwest;top=0;left=0;right=0;bottom=1;" parent="dFildIa3CV3cTvu0gfpd-1" vertex="1">
          <mxGeometry y="30" width="180" height="30" as="geometry" />
        </mxCell>
        <mxCell id="dFildIa3CV3cTvu0gfpd-3" value="PK" style="shape=partialRectangle;connectable=0;fillColor=none;top=0;left=0;bottom=0;right=0;fontStyle=1;overflow=hidden;whiteSpace=wrap;html=1;" parent="dFildIa3CV3cTvu0gfpd-2" vertex="1">
          <mxGeometry width="30" height="30" as="geometry">
            <mxRectangle width="30" height="30" as="alternateBounds" />
          </mxGeometry>
        </mxCell>
        <mxCell id="dFildIa3CV3cTvu0gfpd-4" value="blogID" style="shape=partialRectangle;connectable=0;fillColor=none;top=0;left=0;bottom=0;right=0;align=left;spacingLeft=6;fontStyle=5;overflow=hidden;whiteSpace=wrap;html=1;" parent="dFildIa3CV3cTvu0gfpd-2" vertex="1">
          <mxGeometry x="30" width="150" height="30" as="geometry">
            <mxRectangle width="150" height="30" as="alternateBounds" />
          </mxGeometry>
        </mxCell>
        <mxCell id="dFildIa3CV3cTvu0gfpd-14" value="" style="shape=tableRow;horizontal=0;startSize=0;swimlaneHead=0;swimlaneBody=0;fillColor=none;collapsible=0;dropTarget=0;points=[[0,0.5],[1,0.5]];portConstraint=eastwest;top=0;left=0;right=0;bottom=0;" parent="dFildIa3CV3cTvu0gfpd-1" vertex="1">
          <mxGeometry y="60" width="180" height="30" as="geometry" />
        </mxCell>
        <mxCell id="dFildIa3CV3cTvu0gfpd-15" value="FK" style="shape=partialRectangle;connectable=0;fillColor=none;top=0;left=0;bottom=0;right=0;editable=1;overflow=hidden;whiteSpace=wrap;html=1;" parent="dFildIa3CV3cTvu0gfpd-14" vertex="1">
          <mxGeometry width="30" height="30" as="geometry">
            <mxRectangle width="30" height="30" as="alternateBounds" />
          </mxGeometry>
        </mxCell>
        <mxCell id="dFildIa3CV3cTvu0gfpd-16" value="accountID" style="shape=partialRectangle;connectable=0;fillColor=none;top=0;left=0;bottom=0;right=0;align=left;spacingLeft=6;overflow=hidden;whiteSpace=wrap;html=1;" parent="dFildIa3CV3cTvu0gfpd-14" vertex="1">
          <mxGeometry x="30" width="150" height="30" as="geometry">
            <mxRectangle width="150" height="30" as="alternateBounds" />
          </mxGeometry>
        </mxCell>
        <mxCell id="dFildIa3CV3cTvu0gfpd-5" value="" style="shape=tableRow;horizontal=0;startSize=0;swimlaneHead=0;swimlaneBody=0;fillColor=none;collapsible=0;dropTarget=0;points=[[0,0.5],[1,0.5]];portConstraint=eastwest;top=0;left=0;right=0;bottom=0;" parent="dFildIa3CV3cTvu0gfpd-1" vertex="1">
          <mxGeometry y="90" width="180" height="30" as="geometry" />
        </mxCell>
        <mxCell id="dFildIa3CV3cTvu0gfpd-6" value="" style="shape=partialRectangle;connectable=0;fillColor=none;top=0;left=0;bottom=0;right=0;editable=1;overflow=hidden;whiteSpace=wrap;html=1;" parent="dFildIa3CV3cTvu0gfpd-5" vertex="1">
          <mxGeometry width="30" height="30" as="geometry">
            <mxRectangle width="30" height="30" as="alternateBounds" />
          </mxGeometry>
        </mxCell>
        <mxCell id="dFildIa3CV3cTvu0gfpd-7" value="tiitle" style="shape=partialRectangle;connectable=0;fillColor=none;top=0;left=0;bottom=0;right=0;align=left;spacingLeft=6;overflow=hidden;whiteSpace=wrap;html=1;" parent="dFildIa3CV3cTvu0gfpd-5" vertex="1">
          <mxGeometry x="30" width="150" height="30" as="geometry">
            <mxRectangle width="150" height="30" as="alternateBounds" />
          </mxGeometry>
        </mxCell>
        <mxCell id="dFildIa3CV3cTvu0gfpd-8" value="" style="shape=tableRow;horizontal=0;startSize=0;swimlaneHead=0;swimlaneBody=0;fillColor=none;collapsible=0;dropTarget=0;points=[[0,0.5],[1,0.5]];portConstraint=eastwest;top=0;left=0;right=0;bottom=0;" parent="dFildIa3CV3cTvu0gfpd-1" vertex="1">
          <mxGeometry y="120" width="180" height="30" as="geometry" />
        </mxCell>
        <mxCell id="dFildIa3CV3cTvu0gfpd-9" value="" style="shape=partialRectangle;connectable=0;fillColor=none;top=0;left=0;bottom=0;right=0;editable=1;overflow=hidden;whiteSpace=wrap;html=1;" parent="dFildIa3CV3cTvu0gfpd-8" vertex="1">
          <mxGeometry width="30" height="30" as="geometry">
            <mxRectangle width="30" height="30" as="alternateBounds" />
          </mxGeometry>
        </mxCell>
        <mxCell id="dFildIa3CV3cTvu0gfpd-10" value="text" style="shape=partialRectangle;connectable=0;fillColor=none;top=0;left=0;bottom=0;right=0;align=left;spacingLeft=6;overflow=hidden;whiteSpace=wrap;html=1;" parent="dFildIa3CV3cTvu0gfpd-8" vertex="1">
          <mxGeometry x="30" width="150" height="30" as="geometry">
            <mxRectangle width="150" height="30" as="alternateBounds" />
          </mxGeometry>
        </mxCell>
        <mxCell id="dFildIa3CV3cTvu0gfpd-11" value="" style="shape=tableRow;horizontal=0;startSize=0;swimlaneHead=0;swimlaneBody=0;fillColor=none;collapsible=0;dropTarget=0;points=[[0,0.5],[1,0.5]];portConstraint=eastwest;top=0;left=0;right=0;bottom=0;" parent="dFildIa3CV3cTvu0gfpd-1" vertex="1">
          <mxGeometry y="150" width="180" height="30" as="geometry" />
        </mxCell>
        <mxCell id="dFildIa3CV3cTvu0gfpd-12" value="" style="shape=partialRectangle;connectable=0;fillColor=none;top=0;left=0;bottom=0;right=0;editable=1;overflow=hidden;whiteSpace=wrap;html=1;" parent="dFildIa3CV3cTvu0gfpd-11" vertex="1">
          <mxGeometry width="30" height="30" as="geometry">
            <mxRectangle width="30" height="30" as="alternateBounds" />
          </mxGeometry>
        </mxCell>
        <mxCell id="dFildIa3CV3cTvu0gfpd-13" value="status" style="shape=partialRectangle;connectable=0;fillColor=none;top=0;left=0;bottom=0;right=0;align=left;spacingLeft=6;overflow=hidden;whiteSpace=wrap;html=1;" parent="dFildIa3CV3cTvu0gfpd-11" vertex="1">
          <mxGeometry x="30" width="150" height="30" as="geometry">
            <mxRectangle width="150" height="30" as="alternateBounds" />
          </mxGeometry>
        </mxCell>
        <mxCell id="dFildIa3CV3cTvu0gfpd-17" value="" style="shape=tableRow;horizontal=0;startSize=0;swimlaneHead=0;swimlaneBody=0;fillColor=none;collapsible=0;dropTarget=0;points=[[0,0.5],[1,0.5]];portConstraint=eastwest;top=0;left=0;right=0;bottom=0;" parent="dFildIa3CV3cTvu0gfpd-1" vertex="1">
          <mxGeometry y="180" width="180" height="30" as="geometry" />
        </mxCell>
        <mxCell id="dFildIa3CV3cTvu0gfpd-18" value="" style="shape=partialRectangle;connectable=0;fillColor=none;top=0;left=0;bottom=0;right=0;editable=1;overflow=hidden;whiteSpace=wrap;html=1;" parent="dFildIa3CV3cTvu0gfpd-17" vertex="1">
          <mxGeometry width="30" height="30" as="geometry">
            <mxRectangle width="30" height="30" as="alternateBounds" />
          </mxGeometry>
        </mxCell>
        <mxCell id="dFildIa3CV3cTvu0gfpd-19" value="createTime" style="shape=partialRectangle;connectable=0;fillColor=none;top=0;left=0;bottom=0;right=0;align=left;spacingLeft=6;overflow=hidden;whiteSpace=wrap;html=1;" parent="dFildIa3CV3cTvu0gfpd-17" vertex="1">
          <mxGeometry x="30" width="150" height="30" as="geometry">
            <mxRectangle width="150" height="30" as="alternateBounds" />
          </mxGeometry>
        </mxCell>
        <mxCell id="jpY8jGYzc3JA2plT4WOq-7" value="CategoryVoucher" style="shape=table;startSize=30;container=1;collapsible=1;childLayout=tableLayout;fixedRows=1;rowLines=0;fontStyle=1;align=center;resizeLast=1;html=1;" parent="1" vertex="1">
          <mxGeometry x="50" y="860" width="180" height="90" as="geometry" />
        </mxCell>
        <mxCell id="jpY8jGYzc3JA2plT4WOq-8" value="" style="shape=tableRow;horizontal=0;startSize=0;swimlaneHead=0;swimlaneBody=0;fillColor=none;collapsible=0;dropTarget=0;points=[[0,0.5],[1,0.5]];portConstraint=eastwest;top=0;left=0;right=0;bottom=1;" parent="jpY8jGYzc3JA2plT4WOq-7" vertex="1">
          <mxGeometry y="30" width="180" height="30" as="geometry" />
        </mxCell>
        <mxCell id="jpY8jGYzc3JA2plT4WOq-9" value="PK" style="shape=partialRectangle;connectable=0;fillColor=none;top=0;left=0;bottom=0;right=0;fontStyle=1;overflow=hidden;whiteSpace=wrap;html=1;" parent="jpY8jGYzc3JA2plT4WOq-8" vertex="1">
          <mxGeometry width="30" height="30" as="geometry">
            <mxRectangle width="30" height="30" as="alternateBounds" />
          </mxGeometry>
        </mxCell>
        <mxCell id="jpY8jGYzc3JA2plT4WOq-10" value="catevoucherID" style="shape=partialRectangle;connectable=0;fillColor=none;top=0;left=0;bottom=0;right=0;align=left;spacingLeft=6;fontStyle=5;overflow=hidden;whiteSpace=wrap;html=1;" parent="jpY8jGYzc3JA2plT4WOq-8" vertex="1">
          <mxGeometry x="30" width="150" height="30" as="geometry">
            <mxRectangle width="150" height="30" as="alternateBounds" />
          </mxGeometry>
        </mxCell>
        <mxCell id="jpY8jGYzc3JA2plT4WOq-11" value="" style="shape=tableRow;horizontal=0;startSize=0;swimlaneHead=0;swimlaneBody=0;fillColor=none;collapsible=0;dropTarget=0;points=[[0,0.5],[1,0.5]];portConstraint=eastwest;top=0;left=0;right=0;bottom=0;" parent="jpY8jGYzc3JA2plT4WOq-7" vertex="1">
          <mxGeometry y="60" width="180" height="30" as="geometry" />
        </mxCell>
        <mxCell id="jpY8jGYzc3JA2plT4WOq-12" value="" style="shape=partialRectangle;connectable=0;fillColor=none;top=0;left=0;bottom=0;right=0;editable=1;overflow=hidden;whiteSpace=wrap;html=1;" parent="jpY8jGYzc3JA2plT4WOq-11" vertex="1">
          <mxGeometry width="30" height="30" as="geometry">
            <mxRectangle width="30" height="30" as="alternateBounds" />
          </mxGeometry>
        </mxCell>
        <mxCell id="jpY8jGYzc3JA2plT4WOq-13" value="catevoucherName" style="shape=partialRectangle;connectable=0;fillColor=none;top=0;left=0;bottom=0;right=0;align=left;spacingLeft=6;overflow=hidden;whiteSpace=wrap;html=1;" parent="jpY8jGYzc3JA2plT4WOq-11" vertex="1">
          <mxGeometry x="30" width="150" height="30" as="geometry">
            <mxRectangle width="150" height="30" as="alternateBounds" />
          </mxGeometry>
        </mxCell>
        <mxCell id="jpY8jGYzc3JA2plT4WOq-20" value="" style="edgeStyle=entityRelationEdgeStyle;fontSize=12;html=1;endArrow=ERoneToMany;startArrow=ERmandOne;rounded=0;" parent="1" source="jpY8jGYzc3JA2plT4WOq-8" target="jpY8jGYzc3JA2plT4WOq-1" edge="1">
          <mxGeometry width="100" height="100" relative="1" as="geometry">
            <mxPoint x="288" y="952" as="sourcePoint" />
            <mxPoint x="388" y="852" as="targetPoint" />
          </mxGeometry>
        </mxCell>
      </root>
    </mxGraphModel>
  </diagram>
</mxfile>
